<!DOCTYPE svg PUBLIC "-//W3C//DTD SVG 20010904//EN" "http://www.w3.org/TR/2001/REC-SVG-20010904/DTD/svg10.dtd">
<svg version="1.0" xmlns="http://www.w3.org/2000/svg" width="1600px" height="900px" viewBox="0 0 16000 9000" preserveAspectRatio="xMidYMid meet">
<g id="layer101" fill="#000000" stroke="none">
 <path d="M0 4500 l0 -4500 8000 0 8000 0 0 4500 0 4500 -8000 0 -8000 0 0 -4500z"/>
 </g>
<g id="layer102" fill="#303030" stroke="none">
 <path d="M14621 6474 c-85 -15 -106 -22 -98 -30 3 -4 -3 -15 -13 -27 -12 -12 -18 -31 -16 -48 2 -16 -1 -30 -6 -31 -13 -5 -27 -75 -28 -137 0 -29 -6 -79 -14 -110 -8 -31 -20 -99 -26 -151 -6 -52 -20 -153 -30 -225 -11 -71 -24 -168 -30 -215 -6 -47 -16 -119 -23 -160 -6 -41 -11 -82 -10 -90 2 -8 0 -30 -3 -48 -4 -24 -9 -32 -19 -28 -8 3 -38 -1 -67 -8 -29 -7 -97 -23 -150 -35 -90 -21 -98 -24 -98 -46 0 -13 -4 -27 -10 -30 -5 -3 -10 -25 -10 -48 0 -23 -5 -69 -10 -102 -6 -35 -6 -63 -1 -68 6 -6 37 -3 78 6 37 9 133 30 213 48 264 57 555 130 568 143 14 14 50 241 39 252 -4 4 -42 0 -84 -9 -214 -46 -218 -46 -217 -10 1 16 5 36 9 46 4 9 5 24 2 32 -4 8 -2 17 2 19 11 7 34 183 26 196 -4 6 -2 16 4 23 10 13 20 75 90 592 38 277 40 319 12 314 -3 -1 -39 -7 -80 -15z"/>
 <path d="M13538 6275 c-19 -22 -22 -23 -33 -8 -13 18 -39 9 -29 -10 5 -8 3 -8 -7 1 -18 17 -84 15 -124 -4 -36 -17 -51 -62 -33 -97 8 -16 7 -18 -10 -13 -26 8 -29 -1 -47 -137 -33 -251 -62 -335 -130 -376 -19 -11 -35 -24 -35 -30 0 -11 -66 -26 -98 -23 -12 2 -56 -4 -97 -13 -122 -25 -117 -28 -109 63 4 42 8 93 9 113 1 20 5 40 8 45 9 15 41 384 34 391 -4 4 -35 1 -70 -5 -34 -6 -83 -14 -109 -18 -26 -3 -55 -12 -65 -20 -16 -12 -14 -13 16 -7 25 4 32 3 27 -5 -4 -7 -13 -12 -20 -12 -19 0 -42 -30 -30 -38 5 -4 10 -17 11 -30 2 -17 -2 -22 -14 -20 -15 2 -19 -8 -25 -57 -12 -105 -31 -279 -34 -310 -2 -16 -10 -84 -19 -150 -9 -66 -18 -138 -20 -161 -1 -23 -5 -50 -8 -60 -4 -10 -9 -50 -12 -89 -2 -38 -12 -119 -21 -180 -8 -60 -18 -132 -20 -160 -16 -178 -33 -325 -39 -335 -19 -30 19 -25 449 64 244 51 316 78 391 148 145 133 217 315 211 533 -3 115 -16 148 -75 195 l-39 32 43 39 c25 23 54 66 73 107 34 73 40 99 72 312 21 144 41 223 66 270 27 50 27 80 -1 80 -8 0 -25 -11 -37 -25z m-448 -734 c0 -16 -18 -22 -45 -15 -20 5 -23 9 -13 15 18 12 58 11 58 0z m63 -259 c43 -48 33 -184 -21 -271 -41 -67 -97 -93 -280 -130 -151 -31 -184 -32 -162 -6 6 7 12 43 14 81 3 38 7 76 10 84 3 8 10 58 16 110 6 52 13 96 15 99 11 11 257 49 321 50 56 1 74 -3 87 -17z"/>
 <path d="M11163 5950 c-169 -44 -335 -173 -463 -361 -49 -72 -127 -236 -152 -319 -19 -61 -47 -176 -48 -192 0 -15 27 -8 45 12 27 30 30 16 4 -20 -19 -25 -21 -34 -11 -50 14 -23 0 -35 -27 -21 -16 9 -19 6 -25 -27 -3 -20 -6 -54 -6 -76 0 -32 -3 -37 -17 -31 -62 25 -74 7 -18 -26 33 -20 35 -24 36 -77 1 -32 1 -60 0 -64 0 -4 8 -53 20 -108 35 -176 89 -270 202 -354 41 -30 88 -56 109 -60 21 -4 39 -10 41 -14 3 -4 1 -38 -4 -75 -24 -195 -40 -410 -31 -419 7 -7 14 8 21 43 9 48 37 307 43 414 3 34 6 40 23 37 61 -9 187 5 250 29 369 136 615 530 651 1043 4 52 4 102 -1 113 -4 10 -8 50 -10 88 -10 206 -102 383 -243 469 -113 68 -246 84 -389 46z m199 -341 c141 -72 186 -366 104 -683 -62 -238 -187 -389 -362 -436 -58 -16 -68 -16 -119 -2 -102 28 -171 137 -182 290 -3 40 -10 75 -14 78 -12 7 -12 91 0 98 4 3 11 38 15 77 24 263 146 482 316 569 84 44 168 47 242 9z"/>
 <path d="M11080 5416 c0 -16 137 -78 145 -66 6 9 -36 34 -107 63 -30 13 -38 13 -38 3z"/>
 <path d="M11360 5283 c0 -5 12 -19 25 -32 23 -21 25 -22 25 -4 0 10 -5 24 -12 31 -13 13 -38 16 -38 5z"/>
 <path d="M11440 5220 c10 -19 40 -28 40 -12 0 13 -23 32 -37 32 -11 0 -11 -5 -3 -20z"/>
 <path d="M8882 5543 c-13 -3 -28 -16 -34 -29 -12 -25 -12 -25 -27 -5 -16 20 -17 20 -115 3 -80 -14 -100 -20 -106 -37 -4 -11 -10 -69 -14 -130 -16 -257 -18 -295 -21 -394 -5 -124 -13 -245 -20 -286 -4 -29 -17 -229 -20 -330 -1 -27 -5 -77 -8 -110 -4 -33 -12 -143 -18 -245 -6 -102 -13 -211 -15 -242 -4 -67 -8 -66 106 -43 41 9 199 40 350 70 151 30 299 63 329 72 151 47 304 202 372 377 35 90 63 227 55 270 -3 18 -3 36 1 40 11 11 13 39 2 52 -5 6 -7 19 -3 27 9 24 -15 126 -43 182 -56 111 -125 163 -243 185 -61 11 -109 6 -344 -34 -82 -14 -150 -25 -152 -23 -12 12 -3 314 10 335 4 6 6 53 5 104 0 51 2 110 6 131 7 35 -6 70 -24 66 -3 -1 -16 -4 -29 -6z m-181 -90 c-23 -16 -52 -14 -58 3 -6 17 39 33 60 22 18 -9 18 -10 -2 -25z m-56 -73 c3 -5 4 -10 1 -10 -3 0 -8 5 -11 10 -3 6 -4 10 -1 10 3 0 8 -4 11 -10z m648 -771 c35 -20 56 -51 67 -107 32 -150 -63 -323 -198 -360 -73 -20 -275 -62 -297 -62 -18 0 -20 6 -18 73 1 39 6 119 13 177 6 58 9 124 6 147 -3 23 -1 45 4 48 6 3 10 14 10 24 0 15 11 20 48 26 26 4 64 13 85 20 36 12 40 11 114 -31 43 -24 82 -44 87 -44 18 0 -18 27 -74 56 l-55 29 30 6 c51 11 155 10 178 -2z"/>
 <path d="M7649 5355 c-3 -2 -52 -11 -110 -19 -108 -16 -237 -41 -244 -48 -3 -2 -11 -31 -19 -64 -15 -58 -20 -103 -31 -294 -16 -260 -63 -361 -190 -408 -48 -18 -355 -74 -410 -76 l-50 -1 2 35 c3 49 14 486 14 598 1 52 -2 96 -5 100 -4 3 -86 -7 -184 -23 l-177 -30 -1 -90 c-1 -49 -5 -200 -9 -335 -8 -270 -12 -467 -19 -1005 -3 -198 -8 -386 -11 -418 -5 -48 -3 -58 11 -64 9 -3 123 17 253 45 130 28 340 72 466 97 305 61 375 92 500 219 126 128 182 271 183 470 1 143 -21 217 -81 279 -24 24 -64 52 -90 62 l-47 18 39 31 c119 96 163 205 165 411 1 39 5 76 9 83 5 6 8 38 7 70 -2 81 26 219 55 269 33 55 33 93 2 93 -13 0 -26 -2 -28 -5z m-289 -99 c0 -2 -7 -9 -15 -16 -12 -10 -15 -10 -15 4 0 9 7 16 15 16 8 0 15 -2 15 -4z m-10 -72 c0 -8 -4 -12 -10 -9 -5 3 -10 13 -10 21 0 8 5 12 10 9 6 -3 10 -13 10 -21z m-953 -80 c2 -5 -13 -10 -32 -12 -33 -2 -35 0 -25 18 8 15 15 17 32 11 12 -4 23 -12 25 -17z m-67 -31 c-1 -18 -18 -35 -24 -24 -4 6 -4 16 -1 21 7 12 25 13 25 3z m-15 -63 c3 -5 4 -10 1 -10 -3 0 -8 5 -11 10 -3 6 -4 10 -1 10 3 0 8 -4 11 -10z m802 -555 c0 -8 -10 -16 -21 -16 -12 -1 -36 -3 -55 -5 -39 -5 -38 -2 4 20 38 20 72 20 72 1z m23 -271 c25 -9 51 -21 58 -27 56 -46 70 -192 28 -282 -29 -64 -88 -117 -160 -144 -72 -27 -468 -106 -490 -98 -14 6 -15 11 -5 28 7 14 10 71 8 163 -1 77 1 171 6 207 l8 66 171 33 c94 18 179 37 188 41 10 5 19 5 22 0 8 -13 126 -81 139 -81 15 1 -30 39 -74 64 l-34 18 35 13 c47 17 48 17 100 -1z"/>
 <path d="M10062 5041 c5 -16 300 -162 315 -157 21 8 16 38 -5 32 -11 -4 -41 6 -73 24 -92 52 -212 110 -227 110 -7 0 -12 -4 -10 -9z"/>
 <path d="M5060 4929 c-91 -15 -170 -29 -177 -29 -41 -1 -40 9 -41 -817 l0 -788 -28 -5 -27 -5 -4 -113 -4 -112 26 -10 c20 -8 25 -16 25 -44 0 -19 -6 -36 -12 -38 -7 -3 -1 -12 16 -23 29 -19 30 -19 209 18 99 20 185 41 190 46 6 6 11 194 14 463 3 249 6 455 8 458 1 3 -1 37 -6 75 -5 39 -7 257 -5 485 4 393 2 471 -13 469 -3 0 -80 -14 -171 -30z m-40 -54 c11 -13 7 -15 -23 -15 -28 0 -41 -7 -61 -32 -23 -29 -26 -30 -26 -12 0 12 9 33 21 48 23 29 69 35 89 11z m-77 -1722 c15 -31 14 -33 -3 -33 -21 0 -33 25 -24 52 7 23 6 23 27 -19z"/>
 <path d="M3690 4720 c-14 -5 -65 -14 -115 -20 -95 -13 -157 -28 -120 -29 11 -1 27 -6 35 -11 10 -6 4 -8 -21 -4 -29 5 -40 2 -58 -17 -11 -12 -21 -31 -21 -41 0 -10 -4 -18 -10 -18 -13 0 -13 4 4 45 8 19 20 35 25 35 6 0 11 5 11 11 0 8 -11 9 -32 4 -18 -4 -42 -7 -52 -8 -21 -2 -24 -13 -91 -257 -44 -158 -57 -200 -65 -205 -9 -6 -488 -90 -653 -115 -37 -6 -72 -8 -76 -5 -8 4 -66 132 -142 309 -19 43 -40 81 -47 84 -8 3 -64 -5 -126 -16 -61 -12 -145 -27 -186 -32 -41 -6 -82 -14 -90 -17 -8 -3 -23 -5 -32 -4 -22 3 -23 -15 -2 -65 13 -31 225 -505 264 -589 5 -11 59 -132 120 -270 61 -137 115 -259 120 -270 14 -31 52 -118 176 -405 63 -146 121 -280 129 -297 8 -18 21 -33 29 -33 22 0 447 98 454 105 14 14 207 631 241 771 10 44 43 153 74 244 110 329 331 1049 339 1105 2 16 -3 20 -27 22 -16 1 -41 -3 -55 -7z m-323 -219 c-25 -70 -35 -72 -17 -4 15 57 18 63 30 63 5 0 -1 -27 -13 -59z m-30 -93 c-3 -8 -6 -5 -6 6 -1 11 2 17 5 13 3 -3 4 -12 1 -19z m-1244 5 c3 -5 -7 -8 -21 -9 -15 0 -33 -2 -41 -5 -7 -2 -16 2 -18 9 -5 13 72 18 80 5z m1218 -89 c-19 -79 -38 -145 -44 -150 -3 -3 -11 -3 -17 1 -8 5 -7 12 4 23 8 10 22 46 31 82 24 91 25 93 31 88 2 -3 0 -23 -5 -44z m-1311 17 c0 -11 5 -23 10 -26 13 -8 13 -25 0 -25 -14 0 -43 48 -35 60 10 17 25 11 25 -9z m1142 -223 c-7 -7 -12 -8 -12 -2 0 6 3 14 7 17 3 4 9 5 12 2 2 -3 -1 -11 -7 -17z m-812 -122 c0 -3 -5 -8 -12 -12 -7 -4 -8 -3 -4 4 7 12 16 16 16 8z m750 -181 c0 -2 -14 -55 -31 -117 -17 -62 -37 -138 -45 -168 -13 -48 -56 -196 -126 -432 -21 -70 -31 -78 -43 -31 -3 15 -15 45 -25 68 -19 43 -51 123 -161 409 -38 98 -69 181 -69 185 0 4 64 18 143 31 78 13 185 31 237 41 110 19 120 21 120 14z"/>
 <path d="M10751 4099 c-20 -125 -25 -242 -11 -285 l13 -39 13 49 c14 53 34 233 34 301 0 33 -4 41 -19 42 -15 1 -20 -10 -30 -68z"/>
 <path d="M8392 3890 c0 -14 2 -19 5 -12 2 6 2 18 0 25 -3 6 -5 1 -5 -13z"/>
 <path d="M8225 3850 c3 -5 8 -10 11 -10 3 0 2 5 -1 10 -3 6 -8 10 -11 10 -3 0 -2 -4 1 -10z"/>
 <path d="M8314 3795 c11 -8 24 -15 30 -15 5 0 1 7 -10 15 -10 8 -23 14 -29 14 -5 0 -1 -6 9 -14z"/>
 <path d="M3818 3515 c-3 -14 -1 -25 3 -25 5 0 9 11 9 25 0 14 -2 25 -4 25 -2 0 -6 -11 -8 -25z"/>
 <path d="M3926 3478 c-3 -13 -6 -53 -6 -90 0 -61 2 -68 19 -68 28 0 30 6 23 94 -7 79 -24 109 -36 64z"/>
 <path d="M6108 3484 c-11 -10 -10 -84 1 -84 5 0 11 8 13 18 6 24 -5 75 -14 66z"/>
 <path d="M3770 3449 c-14 -17 -26 -45 -27 -62 -2 -18 -5 -47 -7 -64 -4 -29 -2 -33 18 -33 13 0 38 3 56 7 l33 6 -6 59 c-3 32 -14 72 -24 88 l-19 31 -24 -32z"/>
 <path d="M3650 3415 c-1 -11 -4 -49 -6 -83 -5 -58 -4 -63 13 -60 15 3 18 13 16 65 -1 34 -6 70 -12 80 -10 17 -10 17 -11 -2z"/>
 <path d="M5940 3416 c0 -8 120 -96 132 -96 14 0 -11 23 -80 70 -41 29 -52 34 -52 26z"/>
 <path d="M3853 3345 c0 -22 2 -30 4 -17 2 12 2 30 0 40 -3 9 -5 -1 -4 -23z"/>
 <path d="M4050 3360 c0 -7 3 -10 7 -7 3 4 3 10 0 14 -4 3 -7 0 -7 -7z"/>
 <path d="M6100 3356 c0 -9 5 -16 10 -16 6 0 10 4 10 9 0 6 -4 13 -10 16 -5 3 -10 -1 -10 -9z"/>
 <path d="M4764 3165 c0 -49 1 -71 3 -48 2 23 2 64 0 90 -2 26 -3 8 -3 -42z"/>
 <path d="M4520 3201 c0 -6 3 -11 8 -11 4 0 19 -10 32 -22 35 -32 121 -100 145 -117 31 -21 -63 64 -127 115 -32 25 -58 41 -58 35z"/>
 <path d="M4050 3120 c0 -11 5 -20 10 -20 6 0 10 9 10 20 0 11 -4 20 -10 20 -5 0 -10 -9 -10 -20z"/>
 <path d="M3936 3122 c-19 -4 -19 -16 -13 -384 5 -320 9 -384 22 -404 8 -13 20 -24 26 -24 15 0 8 795 -6 808 -5 5 -19 7 -29 4z"/>
 <path d="M3794 3090 c-53 -12 -57 -18 -50 -74 8 -58 23 -212 31 -303 3 -34 12 -81 20 -104 8 -23 13 -45 10 -49 -3 -5 1 -11 7 -13 11 -4 11 -6 0 -6 -10 -1 -10 -5 0 -21 7 -11 16 -20 19 -20 3 0 7 35 9 78 1 42 3 97 5 122 2 25 5 65 6 90 l2 45 7 -55 c4 -32 7 21 6 129 -1 205 1 198 -72 181z"/>
 <path d="M3640 2892 c0 -93 3 -171 6 -174 3 -3 5 -75 6 -159 0 -85 4 -165 8 -179 5 -15 9 22 9 95 2 136 9 343 16 488 l5 97 -25 0 -25 0 0 -168z"/>
 <path d="M4051 2753 c0 -148 4 -277 9 -288 5 -12 9 98 9 268 1 185 -3 287 -9 287 -6 0 -10 -95 -9 -267z"/>
 <path d="M4000 2730 c0 -11 5 -20 10 -20 6 0 10 9 10 20 0 11 -4 20 -10 20 -5 0 -10 -9 -10 -20z"/>
 <path d="M3862 2700 c0 -14 2 -19 5 -12 2 6 2 18 0 25 -3 6 -5 1 -5 -13z"/>
 <path d="M4003 2650 c6 -71 17 -75 17 -7 0 33 -4 57 -11 57 -6 0 -8 -19 -6 -50z"/>
 <path d="M3862 2630 c0 -14 2 -19 5 -12 2 6 2 18 0 25 -3 6 -5 1 -5 -13z"/>
 <path d="M4010 2530 c0 -7 3 -10 7 -7 3 4 3 10 0 14 -4 3 -7 0 -7 -7z"/>
 <path d="M4010 2340 c0 -7 3 -10 7 -7 3 4 3 10 0 14 -4 3 -7 0 -7 -7z"/>
 <path d="M3960 2295 c0 -5 5 -17 10 -25 5 -8 10 -10 10 -5 0 6 -5 17 -10 25 -5 8 -10 11 -10 5z"/>
 </g>
<g id="layer103" fill="#717171" stroke="none">
 <path d="M14630 6455 c-6 -8 -9 -19 -5 -24 3 -6 2 -18 -3 -27 -8 -14 -10 -14 -21 0 -11 13 -11 19 -1 31 10 12 10 15 -3 15 -9 0 -22 -7 -31 -15 -8 -8 -21 -15 -29 -15 -23 0 -40 -28 -34 -57 3 -17 0 -31 -9 -38 -7 -5 -18 -41 -24 -80 -8 -57 -7 -72 4 -80 18 -13 10 -61 -14 -85 -17 -17 -31 -104 -81 -505 -11 -88 -27 -196 -35 -240 -13 -71 -13 -81 1 -91 14 -10 14 -13 0 -24 -18 -15 -20 -61 -3 -78 8 -8 9 -12 1 -12 -6 0 -19 -3 -29 -7 -14 -5 -16 -2 -12 15 4 12 2 24 -2 27 -8 5 -259 -48 -295 -61 -18 -7 -20 -20 -4 -29 7 -5 3 -14 -11 -27 -15 -14 -20 -28 -17 -46 3 -15 1 -55 -5 -90 -5 -35 -8 -66 -5 -68 10 -10 621 125 773 171 79 25 84 28 89 58 38 213 38 216 -22 201 -31 -7 -40 -15 -50 -44 -7 -19 -12 -30 -12 -24 -1 7 -19 19 -41 28 -33 13 -49 14 -91 5 -28 -6 -53 -8 -56 -5 -4 3 3 70 15 149 12 78 25 162 27 187 3 25 8 52 10 60 6 21 107 763 107 790 1 45 -3 50 -36 50 -18 0 -39 -7 -46 -15z m24 -1245 c-11 -11 -224 -63 -231 -57 -5 6 40 21 132 43 39 9 77 20 85 24 18 10 27 3 14 -10z m96 -109 c15 -38 8 -49 -30 -43 -41 6 -46 19 -19 48 29 31 34 30 49 -5z"/>
 <path d="M13557 6284 c-9 -10 2 -24 19 -24 8 0 14 7 14 15 0 15 -21 21 -33 9z"/>
 <path d="M13370 6250 c-8 -5 -23 -11 -32 -14 -22 -7 -34 -54 -20 -77 13 -20 2 -32 -20 -24 -12 5 -18 -16 -31 -94 -21 -123 -21 -141 -2 -141 21 0 19 -17 -3 -22 -14 -4 -22 -22 -31 -69 -18 -89 -53 -154 -101 -184 -41 -26 -54 -65 -28 -81 16 -10 -17 -22 -65 -23 -21 -1 -99 -12 -173 -26 -150 -28 -205 -32 -187 -14 6 6 71 22 145 34 141 24 168 32 168 46 0 12 -22 11 -120 -6 -47 -8 -89 -15 -94 -15 -9 0 -7 24 24 280 11 91 23 207 26 258 6 92 6 92 -17 92 -13 0 -36 -6 -50 -14 -14 -7 -32 -10 -40 -6 -19 10 -59 -6 -59 -24 0 -8 -13 -17 -29 -21 -28 -6 -29 -9 -26 -51 2 -39 0 -44 -15 -39 -20 6 -25 -11 -36 -137 -4 -55 -3 -78 5 -78 6 0 11 5 11 10 0 6 7 10 15 10 11 0 15 -11 15 -43 0 -52 -6 -60 -32 -46 -11 6 -22 8 -25 5 -3 -3 -20 -128 -39 -278 -18 -150 -40 -325 -48 -388 -8 -63 -22 -185 -31 -270 -9 -85 -20 -184 -25 -220 -5 -35 -7 -66 -5 -69 10 -9 593 108 674 136 106 36 206 127 274 250 59 105 79 181 84 319 6 143 -8 190 -76 244 l-40 33 42 37 c23 21 53 60 66 87 12 26 27 55 31 64 8 15 22 85 34 164 13 91 47 275 56 310 25 90 26 86 -11 79 -19 -3 -44 -17 -56 -30 -12 -13 -24 -24 -27 -24 -2 0 -7 18 -11 40 -5 33 -11 40 -28 39 -12 0 -29 -4 -37 -9z m-76 -325 c-4 -8 -8 -15 -10 -15 -2 0 -4 7 -4 15 0 8 4 15 10 15 5 0 7 -7 4 -15z m-135 -641 c29 -37 36 -87 22 -162 -19 -101 -80 -180 -162 -207 -44 -15 -331 -76 -335 -72 -1 1 9 95 24 209 l26 207 96 17 c52 9 111 20 130 24 19 4 67 8 107 9 66 1 73 -1 92 -25z m91 -64 c0 -20 -5 -30 -15 -30 -16 0 -19 17 -9 44 10 26 24 18 24 -14z"/>
 <path d="M11235 5963 c-71 -9 -197 -62 -284 -117 -106 -68 -237 -226 -311 -376 -17 -36 -36 -74 -42 -84 -25 -47 -88 -256 -88 -294 0 -9 8 -7 26 7 15 12 31 21 35 21 15 0 10 -37 -6 -50 -18 -15 -20 -61 -3 -78 7 -7 8 -12 2 -13 -36 -4 -50 -3 -56 6 -14 19 -19 -5 -25 -111 -10 -189 35 -401 109 -517 90 -140 253 -211 434 -188 161 20 299 97 445 248 113 116 188 241 243 406 63 189 71 240 71 472 -1 230 -13 305 -73 424 -86 173 -277 271 -477 244z m123 -342 c44 -23 98 -86 116 -139 66 -187 36 -525 -66 -730 -132 -267 -420 -364 -549 -183 -38 52 -57 116 -71 240 -10 96 -10 125 6 228 34 229 91 367 197 475 87 89 167 128 262 128 47 0 79 -6 105 -19z m-823 -711 c3 -5 -1 -10 -9 -10 -9 0 -16 5 -16 10 0 6 4 10 9 10 6 0 13 -4 16 -10z"/>
 <path d="M11090 5412 c0 -8 61 -34 67 -29 1 2 -13 11 -32 20 -19 9 -35 13 -35 9z"/>
 <path d="M11382 5266 c7 -8 15 -12 17 -11 5 6 -10 25 -20 25 -5 0 -4 -6 3 -14z"/>
 <path d="M8865 5524 c-9 -9 -19 -29 -22 -45 -6 -33 -23 -39 -23 -9 0 11 -4 20 -10 20 -5 0 -10 7 -10 15 0 12 -7 14 -27 9 -48 -10 -51 -12 -46 -36 4 -21 -1 -25 -46 -38 -28 -7 -51 -17 -51 -20 0 -4 9 -19 21 -34 15 -19 17 -26 7 -26 -8 0 -19 5 -26 12 -15 15 -16 80 0 96 14 14 4 27 -16 19 -17 -7 -21 -41 -46 -492 -11 -187 -31 -500 -44 -695 -40 -583 -42 -624 -22 -617 9 4 53 14 99 22 379 74 636 129 678 146 203 79 355 286 400 542 17 101 7 288 -20 357 -54 141 -166 220 -312 220 -43 0 -392 -54 -433 -66 -18 -6 -19 -1 -13 132 4 77 11 215 17 308 6 92 9 174 6 182 -7 19 -41 18 -61 -2z m-214 -377 c-10 -9 -11 -8 -5 6 3 10 9 15 12 12 3 -3 0 -11 -7 -18z m661 -543 c39 -36 58 -89 58 -162 0 -82 -19 -141 -65 -204 -52 -71 -101 -94 -282 -133 -184 -40 -192 -41 -187 -17 2 9 8 103 14 207 14 255 17 274 44 281 207 52 378 63 418 28z"/>
 <path d="M7653 5329 c3 -13 1 -19 -6 -16 -7 2 -27 -2 -46 -9 -42 -18 -41 -18 -41 7 0 18 -4 20 -32 16 -18 -3 -54 -9 -81 -13 -43 -6 -77 -24 -45 -24 7 0 -2 -12 -19 -26 -34 -27 -46 -78 -20 -87 6 -2 9 -7 5 -11 -3 -4 -15 -1 -27 6 -16 10 -21 23 -21 55 0 41 1 43 30 43 21 0 30 5 30 16 0 13 -7 15 -37 9 -21 -4 -41 -12 -45 -18 -22 -33 -40 -165 -53 -387 -8 -127 -28 -221 -58 -269 -12 -20 -21 -40 -19 -44 1 -5 -6 -11 -16 -14 -11 -2 -22 -20 -29 -44 -9 -35 -8 -41 9 -53 19 -14 19 -15 1 -24 -29 -15 -151 -24 -158 -12 -5 8 -14 6 -30 -4 -12 -8 -42 -17 -66 -20 -24 -2 -44 -5 -44 -6 0 -2 3 -1 -135 -28 -132 -26 -250 -33 -250 -15 0 7 3 13 8 13 8 0 367 66 432 79 59 12 96 27 105 41 5 9 -1 10 -21 6 -130 -27 -368 -65 -376 -60 -5 3 -7 32 -4 68 3 33 8 197 12 364 l6 302 -35 0 c-20 0 -39 -5 -43 -11 -3 -6 -16 -8 -28 -5 -12 3 -39 1 -59 -5 -32 -9 -37 -14 -37 -39 0 -20 -4 -28 -13 -24 -8 3 -25 0 -39 -5 -31 -12 -47 -63 -28 -86 18 -22 -4 -18 -23 3 -23 25 -21 67 2 89 26 24 14 42 -26 36 l-31 -5 -6 -141 c-11 -260 -39 -1735 -33 -1750 6 -17 6 -17 231 34 48 11 232 49 408 85 267 54 332 70 392 99 177 87 298 233 351 425 26 97 25 266 -4 345 -34 95 -95 155 -182 178 -19 5 -14 12 44 67 115 107 133 167 157 505 12 172 30 262 66 323 27 45 25 62 -8 62 -16 0 -19 -5 -15 -21z m-469 -1157 c48 -28 71 -85 71 -177 -1 -169 -92 -258 -310 -303 -190 -39 -376 -74 -378 -71 -6 7 13 472 18 478 4 3 92 22 197 42 186 36 193 37 217 20 37 -25 51 -33 51 -28 0 3 -14 14 -32 25 l-32 21 24 5 c14 3 34 7 45 10 32 7 97 -5 129 -22z"/>
 <path d="M7080 4111 c24 -20 40 -26 40 -16 0 2 -15 12 -32 20 l-33 16 25 -20z"/>
 <path d="M10070 5038 c3 -3 57 -31 120 -62 121 -60 124 -52 4 14 -61 34 -139 63 -124 48z"/>
 <path d="M5187 4943 c-4 -3 -19 -7 -34 -8 -66 -5 -149 -18 -163 -26 -13 -7 -13 -8 2 -9 18 0 48 -26 48 -42 0 -5 -12 -7 -30 -3 -23 5 -35 1 -55 -19 -14 -14 -25 -33 -25 -43 0 -32 -21 3 -22 37 -1 23 6 38 23 52 l24 20 -45 -7 c-25 -3 -48 -9 -52 -13 -3 -4 -8 -373 -10 -819 -1 -447 -6 -813 -10 -813 -5 0 -8 7 -8 16 0 10 -7 14 -22 12 -13 -2 -23 -9 -22 -15 1 -7 2 -56 3 -108 1 -94 1 -95 25 -95 23 0 25 4 29 53 2 28 4 -1 5 -66 2 -116 2 -117 25 -112 12 2 90 18 172 35 190 39 182 37 189 63 8 32 10 1893 1 1906 -7 12 -38 15 -48 4z m-223 -1740 c-3 -16 -8 -34 -10 -41 -2 -7 1 -22 6 -33 9 -16 7 -19 -13 -19 -30 0 -47 19 -42 45 2 11 4 23 4 28 1 11 40 47 51 47 6 0 8 -12 4 -27z m218 -126 c4 -21 1 -23 -49 -23 l-53 -1 35 34 c39 38 59 34 67 -10z"/>
 <path d="M10360 4900 c-13 -8 -12 -10 3 -10 9 0 17 5 17 10 0 12 -1 12 -20 0z"/>
 <path d="M10430 4855 c33 -19 50 -18 26 0 -11 8 -27 15 -35 15 -10 -1 -7 -6 9 -15z"/>
 <path d="M3699 4691 c-13 -37 -36 -47 -45 -19 -5 17 -12 20 -48 15 -23 -3 -45 -13 -51 -22 -30 -50 -32 -51 -52 -32 -11 9 -34 17 -52 17 -27 0 -34 -5 -47 -36 -8 -19 -12 -43 -10 -52 5 -15 -13 -88 -65 -272 -6 -19 -14 -52 -20 -73 -16 -63 -28 -76 -60 -64 l-28 11 24 41 c13 22 31 67 38 100 8 33 20 74 27 90 26 68 76 275 66 275 -6 0 -21 -3 -32 -6 -22 -6 -26 -16 -115 -329 -17 -60 -35 -117 -39 -124 -5 -10 -47 -22 -112 -33 -196 -34 -573 -97 -603 -100 -28 -3 -32 1 -72 82 -24 47 -61 133 -84 192 -23 59 -47 112 -53 116 -10 8 -163 -12 -174 -22 -2 -3 4 -16 13 -30 l17 -25 -36 6 c-22 3 -42 1 -51 -7 -13 -11 -18 -10 -31 8 -18 26 -59 29 -73 5 -7 -13 -12 -15 -23 -5 -21 17 -72 0 -76 -25 -3 -19 37 -116 125 -303 34 -72 53 -115 86 -190 76 -176 202 -460 232 -525 21 -44 76 -168 122 -275 47 -107 107 -247 134 -310 28 -63 54 -124 60 -135 5 -11 20 -47 33 -80 19 -47 29 -61 48 -63 12 -1 117 19 232 46 l210 48 34 104 c99 309 174 557 197 655 14 61 30 119 35 130 21 45 253 774 344 1082 44 148 45 163 10 163 -19 0 -28 -7 -35 -29z m-1708 -321 c10 -6 19 -19 19 -28 0 -10 7 -28 16 -40 14 -20 14 -22 -4 -22 -26 0 -52 31 -57 69 -4 34 -2 36 26 21z m1173 -235 c-7 -18 -43 -39 -51 -31 -9 8 27 46 43 46 8 0 11 -6 8 -15z m-786 -142 c2 -8 -6 -13 -22 -13 -13 0 -28 -5 -32 -11 -4 -7 -9 -8 -17 0 -16 16 12 43 41 39 14 -2 27 -9 30 -15z m712 -171 c0 -5 -6 -28 -14 -53 -8 -24 -29 -98 -46 -164 -18 -66 -48 -174 -67 -240 -20 -66 -39 -133 -43 -150 -25 -93 -58 -189 -67 -192 -6 -2 -14 8 -17 22 -4 14 -19 54 -35 88 -15 34 -38 89 -50 122 -13 33 -37 94 -54 135 -16 41 -38 98 -48 125 -10 28 -31 86 -48 130 -17 44 -31 86 -31 93 0 7 13 12 33 13 17 0 131 17 252 39 121 21 223 38 228 39 4 1 7 -3 7 -7z"/>
 <path d="M7050 4490 c-8 -5 -10 -10 -5 -10 6 0 17 5 25 10 8 5 11 10 5 10 -5 0 -17 -5 -25 -10z"/>
 <path d="M6990 4460 c0 -5 7 -7 15 -4 8 4 15 8 15 10 0 2 -7 4 -15 4 -8 0 -15 -4 -15 -10z"/>
 <path d="M10851 4047 c-14 -114 -31 -305 -30 -332 l0 -20 8 20 c16 39 51 414 40 421 -4 2 -12 -38 -18 -89z"/>
 <path d="M6106 3442 c-2 -4 -1 -14 5 -22 7 -12 9 -10 9 8 0 23 -5 28 -14 14z"/>
 <path d="M3924 3386 c-9 -24 0 -51 19 -54 14 -3 17 4 17 32 0 26 -4 36 -15 36 -9 0 -18 -6 -21 -14z"/>
 <path d="M6027 3349 c7 -7 15 -10 18 -7 3 3 -2 9 -12 12 -14 6 -15 5 -6 -5z"/>
 <path d="M3934 3109 c-8 -14 4 -283 15 -312 5 -13 10 41 13 138 3 88 3 166 1 173 -6 15 -20 16 -29 1z"/>
 <path d="M3798 3079 c-15 -8 -18 -24 -17 -87 0 -91 12 -171 26 -181 6 -3 12 -13 15 -21 10 -27 19 93 16 194 -2 55 -7 101 -13 102 -5 2 -18 -1 -27 -7z"/>
 <path d="M3650 3010 c0 -16 5 -30 10 -30 6 0 10 14 10 30 0 17 -4 30 -10 30 -5 0 -10 -13 -10 -30z"/>
 <path d="M4050 2904 c0 -74 4 -113 10 -109 6 4 10 53 10 116 0 66 -4 109 -10 109 -6 0 -10 -45 -10 -116z"/>
 <path d="M3650 2848 c0 -67 3 -118 6 -115 9 9 11 237 2 237 -5 0 -8 -55 -8 -122z"/>
 <path d="M3951 2734 c0 -11 3 -14 6 -6 3 7 2 16 -1 19 -3 4 -6 -2 -5 -13z"/>
 </g>
<g id="layer104" fill="#939393" stroke="none">
 <path d="M14636 6399 l-18 -31 -19 21 c-47 50 -105 33 -94 -27 4 -24 2 -37 -7 -43 -9 -6 -13 -37 -14 -111 -1 -132 -1 -138 -18 -138 -15 0 -25 -43 -41 -170 -2 -19 -6 -51 -8 -70 -3 -19 -8 -62 -11 -95 -4 -33 -14 -100 -22 -150 -17 -101 -20 -152 -10 -177 10 -22 3 -74 -9 -70 -5 2 -12 -5 -16 -15 -12 -29 -10 -71 3 -75 8 -3 7 -11 -5 -28 -23 -32 -21 -56 3 -73 18 -13 19 -15 5 -21 -33 -12 -55 -7 -55 14 0 14 -7 20 -23 20 -12 0 -55 -9 -95 -20 -39 -11 -80 -20 -89 -20 -10 0 -35 -5 -56 -11 -31 -8 -38 -14 -34 -30 3 -10 -1 -22 -7 -27 -15 -8 -30 -202 -16 -202 39 0 616 130 719 162 53 17 62 22 46 29 -11 4 -47 8 -79 8 l-59 1 23 25 c13 13 33 28 44 31 12 4 29 13 39 22 18 16 23 67 7 77 -6 4 -8 11 -4 16 7 13 -44 0 -71 -17 -11 -7 -60 -22 -110 -34 -49 -11 -99 -24 -110 -27 l-20 -5 20 20 c13 13 56 28 117 42 54 12 100 26 103 31 8 11 -9 11 -58 0 -20 -5 -39 -6 -41 -2 -2 3 7 76 20 161 13 85 26 175 28 200 2 25 9 72 15 105 7 33 14 76 16 95 14 123 67 509 73 530 4 14 6 44 4 68 -3 36 -6 42 -25 42 -15 0 -29 -11 -41 -31z m-456 -1309 c0 -5 -7 -10 -16 -10 -8 0 -12 5 -9 10 3 6 10 10 16 10 5 0 9 -4 9 -10z"/>
 <path d="M13337 6227 c-18 -12 -20 -27 -15 -77 2 -19 -2 -25 -17 -25 -16 0 -21 -11 -30 -65 -7 -36 -15 -75 -19 -87 -7 -22 8 -41 19 -23 15 24 26 7 22 -34 -6 -55 -12 -65 -35 -60 -14 4 -19 -5 -29 -53 -6 -32 -19 -76 -29 -98 -10 -22 -17 -46 -15 -53 1 -7 -2 -11 -6 -10 -4 1 -25 -6 -45 -15 -32 -13 -38 -21 -38 -46 0 -16 5 -33 11 -37 18 -11 -11 -24 -56 -24 -22 0 -111 -14 -198 -30 -87 -16 -165 -26 -173 -23 -34 13 -1 29 92 45 154 26 204 39 204 50 0 6 -10 8 -22 5 -45 -11 -188 -30 -192 -26 -2 2 1 36 5 74 5 39 11 90 14 115 3 25 13 104 22 175 23 184 19 245 -16 245 -27 0 -44 -26 -37 -54 7 -30 -19 -44 -34 -17 -12 23 -76 37 -95 21 -16 -13 -25 -59 -14 -66 20 -12 8 -31 -16 -26 -23 4 -25 1 -25 -29 0 -19 -5 -51 -9 -73 -5 -21 -6 -48 -1 -60 8 -20 8 -20 19 8 17 43 25 24 24 -58 -1 -87 -6 -100 -33 -84 -11 7 -21 10 -24 7 -6 -5 -30 -181 -66 -479 -10 -91 -29 -239 -40 -330 -12 -91 -21 -201 -21 -244 1 -44 -4 -94 -11 -112 -6 -19 -10 -35 -7 -37 5 -5 109 15 424 79 249 51 317 77 395 150 73 68 141 175 168 264 12 41 26 86 31 100 4 14 7 75 7 135 -1 127 -20 177 -81 215 -19 12 -35 26 -35 32 0 6 18 27 40 46 48 40 98 134 111 206 22 126 31 177 44 261 8 50 19 110 24 135 14 62 13 70 -4 70 -8 0 -15 -7 -15 -15 0 -9 -6 -12 -16 -8 -9 3 -21 -3 -30 -16 -20 -28 -34 -27 -34 2 0 43 -61 78 -93 54z m70 -294 c-4 -3 -7 0 -7 7 0 7 3 10 7 7 3 -4 3 -10 0 -14z m-97 -328 c0 -8 -7 -15 -16 -15 -14 0 -14 3 -4 15 7 8 14 15 16 15 2 0 4 -7 4 -15z m-65 -65 c-10 -11 -25 -20 -34 -20 -12 1 -10 5 8 20 30 26 49 26 26 0z m65 -91 c0 -6 -4 -7 -10 -4 -5 3 -10 11 -10 16 0 6 5 7 10 4 6 -3 10 -11 10 -16z m-177 -141 c29 -15 45 -36 55 -73 l9 -30 17 33 c9 17 21 32 26 32 13 0 13 -91 0 -110 -9 -13 -12 -13 -25 4 -13 17 -14 17 -20 -10 -28 -126 -81 -207 -155 -237 -46 -19 -349 -81 -357 -73 -3 3 4 79 16 168 13 90 25 183 27 207 3 25 6 46 7 47 7 5 308 53 340 53 21 1 48 -4 60 -11z m-46 -555 c-4 -3 -10 -3 -14 0 -3 4 0 7 7 7 7 0 10 -3 7 -7z"/>
 <path d="M11143 5936 c-160 -52 -294 -156 -416 -324 -49 -68 -97 -153 -97 -172 0 -16 18 -12 22 5 2 10 6 8 14 -8 7 -17 7 -31 -3 -56 -14 -32 -14 -32 -39 -16 -25 16 -25 16 -44 -27 -16 -37 -42 -131 -65 -232 l-6 -29 31 27 c17 14 36 26 42 26 13 0 1 -50 -18 -71 -18 -20 -18 -43 1 -59 19 -16 10 -30 -21 -30 -19 0 -24 -5 -24 -25 0 -14 7 -28 15 -31 8 -4 12 -10 9 -15 -3 -5 -14 -4 -26 2 -16 8 -19 17 -14 40 3 15 2 31 -3 33 -13 9 -22 -183 -12 -269 28 -240 102 -386 241 -475 76 -49 140 -63 255 -57 153 7 288 68 431 194 227 199 374 564 374 929 0 293 -78 492 -232 593 -61 40 -96 53 -82 30 4 -6 -13 0 -38 15 -39 23 -55 26 -134 26 -65 -1 -108 -7 -161 -24z m411 -82 c5 -14 4 -15 -9 -4 -17 14 -19 20 -6 20 5 0 12 -7 15 -16z m89 -146 c9 -18 14 -34 12 -36 -7 -8 -25 9 -25 24 0 8 -4 14 -10 14 -5 0 -10 7 -10 15 0 25 17 17 33 -17z m-323 -68 c19 -5 52 -24 73 -41 83 -68 117 -177 117 -374 1 -241 -69 -475 -177 -595 -47 -52 -51 -60 -28 -60 22 0 18 -13 -13 -43 -35 -34 -44 -34 -36 -1 l7 26 -57 -31 c-162 -86 -304 -55 -370 82 -95 194 -64 576 67 806 58 104 185 208 282 232 44 10 95 10 135 -1z m390 -204 c0 -8 -4 -18 -10 -21 -5 -3 -10 3 -10 14 0 12 5 21 10 21 6 0 10 -6 10 -14z m-1013 -393 c-4 -3 -7 0 -7 7 0 7 3 10 7 7 3 -4 3 -10 0 -14z m-10 -60 c-4 -3 -7 0 -7 7 0 7 3 10 7 7 3 -4 3 -10 0 -14z m-102 -350 c6 -31 5 -32 -17 -24 -26 9 -35 45 -17 67 15 18 23 8 34 -43z"/>
 <path d="M8871 5509 c-12 -12 -20 -27 -17 -35 3 -7 1 -16 -4 -19 -6 -4 -10 -17 -10 -31 l0 -24 -20 20 c-11 11 -20 26 -20 34 0 23 -20 29 -39 12 -10 -9 -29 -16 -43 -16 -14 0 -31 -6 -38 -14 -6 -8 -18 -12 -26 -9 -18 7 -18 -18 1 -43 8 -10 15 -27 15 -36 0 -27 -45 20 -55 57 l-8 30 -7 -34 c-5 -18 -11 -103 -14 -190 -7 -156 -14 -270 -41 -651 -8 -113 -17 -243 -19 -290 -3 -47 -10 -157 -16 -245 -18 -281 -20 -335 -12 -335 4 0 54 9 112 21 690 137 704 141 815 229 153 122 246 318 262 550 10 163 -25 293 -103 379 -36 41 -85 74 -101 69 -4 -1 -19 4 -32 11 -40 22 -189 15 -373 -19 -92 -16 -172 -30 -177 -30 -11 0 -6 142 14 390 18 231 10 269 -44 219z m-206 -364 c-7 -68 -18 -81 -36 -42 -8 17 -5 33 11 70 12 27 24 46 27 43 3 -3 2 -35 -2 -71z m152 28 c-4 -3 -7 0 -7 7 0 7 3 10 7 7 3 -4 3 -10 0 -14z m0 -55 c-3 -7 -5 -2 -5 12 0 14 2 19 5 13 2 -7 2 -19 0 -25z m0 -50 c-3 -7 -5 -2 -5 12 0 14 2 19 5 13 2 -7 2 -19 0 -25z m3 -38 c0 -11 -4 -20 -10 -20 -5 0 -10 9 -10 20 0 11 5 20 10 20 6 0 10 -9 10 -20z m4 -56 c7 -19 -2 -37 -15 -29 -12 8 -12 45 0 45 5 0 12 -7 15 -16z m706 -87 c0 -5 -7 -6 -16 -3 -9 3 -18 6 -20 6 -2 0 -4 7 -4 15 0 13 3 13 20 3 11 -7 20 -17 20 -21z m-726 -66 c3 -4 3 -11 0 -14 -8 -7 -44 4 -44 14 0 12 37 12 44 0z m22 -196 c-10 -8 -23 -12 -29 -8 -11 7 12 23 33 23 12 -1 11 -4 -4 -15z m469 -7 c59 -27 95 -139 75 -235 -23 -110 -79 -188 -165 -231 -41 -20 -303 -82 -350 -82 l-25 0 6 78 c3 42 11 156 18 252 l11 175 135 26 c148 29 255 36 295 17z m156 -159 c-9 -23 -10 -22 -10 11 -1 23 2 31 9 24 7 -7 7 -19 1 -35z m-712 -473 c9 -11 8 -15 -5 -20 -23 -9 -24 -8 -24 14 0 23 13 26 29 6z"/>
 <path d="M7656 5336 c7 -18 32 -28 39 -16 9 15 -4 30 -25 30 -13 0 -17 -5 -14 -14z"/>
 <path d="M7345 5289 c-4 -6 -5 -13 -2 -16 7 -7 27 6 27 18 0 12 -17 12 -25 -2z"/>
 <path d="M7450 5286 c0 -11 -9 -16 -30 -16 -17 0 -39 -9 -51 -21 -20 -20 -21 -32 -4 -71 11 -27 -20 -23 -39 4 -9 12 -16 38 -16 57 0 59 -20 22 -35 -65 -7 -43 -19 -154 -25 -246 -13 -180 -26 -247 -60 -305 -14 -24 -18 -39 -11 -41 15 -5 14 -23 -1 -21 -29 3 -37 -3 -49 -38 -11 -33 -10 -38 9 -53 20 -16 20 -17 0 -29 -11 -7 -61 -14 -111 -17 -49 -2 -96 -9 -103 -15 -7 -6 -18 -8 -24 -4 -6 4 -17 2 -23 -4 -7 -5 -22 -10 -32 -10 -11 0 -65 -9 -120 -21 -55 -11 -140 -22 -188 -24 -77 -3 -88 -2 -85 13 2 11 20 18 58 24 191 29 421 77 456 96 36 20 37 21 9 15 -69 -14 -351 -64 -368 -64 -16 0 -17 13 -12 173 2 94 5 257 6 361 1 179 0 190 -18 197 -18 6 -48 -2 -43 -12 1 -2 -1 -26 -5 -53 -7 -45 -9 -48 -21 -31 -8 10 -14 27 -14 37 0 20 -15 24 -25 7 -4 -6 -13 -8 -21 -5 -7 3 -18 -4 -24 -14 -8 -15 -15 -18 -28 -11 -41 21 -83 -28 -67 -79 4 -12 1 -27 -5 -35 -16 -19 -31 -19 -24 0 4 8 1 15 -4 15 -10 0 -28 82 -24 107 3 17 -17 27 -22 11 -3 -7 -10 -220 -15 -473 -26 -1088 -29 -1411 -14 -1408 6 1 84 18 174 38 90 20 286 61 434 91 149 30 293 61 322 69 165 48 302 166 384 330 47 96 69 190 69 305 0 176 -51 274 -167 326 -29 12 -53 27 -53 31 0 4 16 18 35 31 46 30 119 130 139 190 19 58 33 169 41 330 4 68 15 164 25 214 11 50 17 95 14 100 -11 17 -69 1 -81 -23 -10 -19 -13 -20 -13 -6 0 27 -31 53 -67 56 -25 2 -33 -2 -33 -13z m97 -88 c-3 -8 -6 -5 -6 6 -1 11 2 17 5 13 3 -3 4 -12 1 -19z m-957 -64 c0 -8 -4 -12 -10 -9 -5 3 -10 10 -10 16 0 5 5 9 10 9 6 0 10 -7 10 -16z m-63 -171 c-4 -3 -7 0 -7 7 0 7 3 10 7 7 3 -4 3 -10 0 -14z m0 -52 c-1 -22 -5 -27 -14 -19 -14 11 -17 40 -7 51 13 12 23 -4 21 -32z m816 -8 c-5 -2 -7 -18 -5 -36 5 -29 3 -31 -12 -18 -20 17 -21 47 -1 55 8 3 16 13 16 23 1 15 2 15 6 -2 3 -10 1 -21 -4 -22z m-1021 -31 c10 -7 18 -21 17 -30 0 -14 -3 -13 -16 6 -8 12 -22 22 -29 22 -8 0 -14 6 -14 13 0 20 14 31 19 15 2 -7 12 -19 23 -26z m10 -173 c-8 -28 -11 -31 -17 -16 -4 10 -2 37 6 60 12 38 14 39 17 16 2 -15 -1 -42 -6 -60z m188 -44 c0 -8 -4 -15 -10 -15 -5 0 -10 7 -10 15 0 8 5 15 10 15 6 0 10 -7 10 -15z m750 -35 c0 -5 -7 -10 -16 -10 -8 0 -12 5 -9 10 3 6 10 10 16 10 5 0 9 -4 9 -10z m160 -49 c0 -5 -7 -14 -15 -21 -12 -10 -15 -10 -15 2 0 8 3 18 7 21 9 10 23 9 23 -2z m-80 -86 c-13 -14 -28 -25 -34 -25 -6 1 3 12 19 25 39 32 45 32 15 0z m-893 -242 c-4 -3 -7 0 -7 7 0 7 3 10 7 7 3 -4 3 -10 0 -14z m732 -70 c100 -73 93 -283 -13 -381 -71 -65 -119 -83 -330 -122 -55 -10 -140 -27 -189 -38 -48 -11 -89 -17 -91 -13 -2 3 -1 114 2 246 l5 240 236 47 c257 51 332 55 380 21z m-659 -19 c0 -2 -9 -4 -20 -4 -11 0 -20 4 -20 9 0 5 9 7 20 4 11 -3 20 -7 20 -9z m37 10 c-3 -3 -12 -4 -19 -1 -8 3 -5 6 6 6 11 1 17 -2 13 -5z m805 -101 l-10 -28 -7 27 c-8 31 2 55 17 40 7 -7 7 -20 0 -39z m-895 -539 c-3 -3 -12 -4 -19 -1 -8 3 -5 6 6 6 11 1 17 -2 13 -5z m-42 -194 c-3 -5 -10 -10 -16 -10 -5 0 -9 5 -9 10 0 6 7 10 16 10 8 0 12 -4 9 -10z"/>
 <path d="M14793 5260 c-20 -8 -23 -16 -23 -67 0 -57 13 -129 24 -140 12 -12 19 8 36 99 23 118 18 130 -37 108z"/>
 <path d="M10120 5016 c0 -2 7 -7 16 -10 8 -3 12 -2 9 4 -6 10 -25 14 -25 6z"/>
 <path d="M10160 4996 c0 -2 7 -7 16 -10 8 -3 12 -2 9 4 -6 10 -25 14 -25 6z"/>
 <path d="M5174 4889 c-8 -57 -22 -62 -45 -16 -12 25 -22 32 -45 32 -27 0 -29 -3 -26 -32 2 -36 -3 -38 -44 -23 -47 18 -103 -40 -73 -76 6 -8 9 -17 6 -20 -8 -8 -48 38 -44 51 2 5 -5 23 -16 39 -16 23 -21 26 -28 13 -5 -8 -9 -373 -9 -811 -1 -534 -4 -797 -11 -802 -6 -3 -13 4 -16 15 -6 23 -39 26 -37 3 1 -6 2 -52 3 -102 1 -83 3 -90 21 -90 21 0 23 8 20 93 -1 28 3 47 9 47 6 0 11 -15 11 -32 0 -61 15 -64 45 -10 26 48 68 83 82 68 4 -4 2 -16 -5 -26 -15 -25 -16 -72 0 -88 9 -9 7 -13 -8 -18 -10 -4 -32 -18 -47 -31 l-28 -23 25 -9 c53 -21 145 32 198 115 18 27 33 51 35 54 8 9 23 -26 23 -55 1 -36 41 -121 55 -117 6 1 10 58 10 140 1 75 2 486 3 912 1 426 -1 791 -6 810 -6 26 -13 35 -30 36 -19 1 -23 -5 -28 -47z m-217 -451 c-3 -20 -4 -21 -11 -5 -5 9 -5 29 0 45 7 25 8 26 11 5 3 -13 3 -33 0 -45z m13 -909 c0 -44 -3 -59 -12 -56 -8 2 -12 16 -10 33 1 16 3 41 3 57 0 15 4 27 9 27 6 0 10 -27 10 -61z"/>
 <path d="M10353 4893 c4 -3 10 -3 14 0 3 4 0 7 -7 7 -7 0 -10 -3 -7 -7z"/>
 <path d="M3695 4660 c-15 -16 -25 -35 -22 -43 3 -8 1 -19 -5 -25 -7 -7 -3 -12 11 -17 29 -9 26 -23 -6 -27 -30 -4 -76 19 -68 32 3 5 -14 11 -37 15 -26 5 -49 16 -61 31 -22 29 -67 32 -90 6 -11 -12 -17 -36 -17 -66 0 -27 -22 -122 -51 -224 -28 -97 -53 -187 -56 -198 l-5 -22 -34 22 c-37 23 -42 37 -19 56 8 7 25 45 36 84 12 39 32 104 45 144 13 40 30 107 39 149 17 80 10 107 -18 79 -17 -18 -38 -78 -97 -291 -23 -82 -46 -155 -51 -161 -5 -6 -24 -14 -42 -17 -17 -3 -72 -13 -122 -22 -158 -28 -560 -95 -573 -95 -7 0 -33 44 -58 98 -64 137 -72 154 -79 180 -3 12 -11 22 -16 22 -6 0 -8 4 -5 9 7 11 -21 81 -33 81 -5 0 -6 -15 -1 -33 6 -28 4 -33 -11 -33 -10 0 -20 10 -23 22 -7 26 -29 36 -62 28 -20 -5 -24 -12 -24 -41 0 -19 -3 -33 -7 -31 -5 2 -20 10 -35 17 -22 11 -33 11 -58 1 -34 -14 -40 -50 -15 -84 37 -49 -5 -49 -50 -1 l-32 36 -39 -18 c-22 -9 -41 -18 -43 -20 -1 -1 1 -8 5 -15 5 -7 16 -33 25 -58 9 -25 48 -115 86 -200 39 -85 94 -209 123 -275 29 -66 75 -169 102 -230 108 -240 191 -429 279 -633 43 -100 83 -190 88 -200 10 -17 49 -111 71 -169 7 -18 18 -33 24 -33 25 0 436 96 443 104 14 14 200 610 234 751 12 50 37 131 55 180 18 50 46 135 63 190 16 55 77 251 134 435 100 320 157 511 157 522 0 19 -32 12 -55 -12z m2 -47 c-4 -3 -7 0 -7 7 0 7 3 10 7 7 3 -4 3 -10 0 -14z m-1342 -443 c7 -22 6 -23 -8 -12 -10 9 -17 10 -22 2 -15 -25 -22 -7 -7 20 18 31 25 29 37 -10z m805 -40 c-20 -28 -60 -42 -60 -20 0 10 58 50 73 50 5 0 -1 -13 -13 -30z m-1103 -57 c-4 -3 -7 0 -7 7 0 7 3 10 7 7 3 -4 3 -10 0 -14z m68 -3 c7 -12 -12 -12 -40 0 -18 8 -17 9 7 9 15 1 30 -3 33 -9z m1135 -30 c0 -5 -5 -10 -11 -10 -5 0 -7 5 -4 10 3 6 8 10 11 10 2 0 4 -4 4 -10z m-1100 -60 c0 -13 -5 -17 -20 -13 -16 4 -18 9 -9 24 12 23 29 16 29 -11z m230 15 c11 -13 8 -15 -22 -15 -19 0 -39 -5 -46 -12 -19 -19 -40 6 -22 27 16 19 74 20 90 0z m640 -115 c0 -5 -7 -7 -15 -4 -8 4 -15 8 -15 10 0 2 7 4 15 4 8 0 15 -4 15 -10z m175 -30 c-4 -20 -11 -28 -16 -23 -6 6 -6 20 1 38 14 36 24 26 15 -15z m-365 0 c0 -5 -10 -10 -22 -10 -19 0 -20 2 -8 10 19 13 30 13 30 0z m250 -27 c0 -5 -16 -66 -35 -138 -20 -71 -47 -170 -60 -220 -59 -216 -132 -449 -141 -452 -5 -2 -73 157 -149 354 -77 196 -144 361 -150 367 -47 52 -49 57 -35 66 8 6 26 9 40 9 l25 -1 -25 -7 c-14 -4 -25 -13 -25 -21 0 -34 48 -33 285 8 257 44 270 46 270 35z m-545 -153 c3 -5 1 -10 -4 -10 -6 0 -11 5 -11 10 0 6 2 10 4 10 3 0 8 -4 11 -10z m785 -119 c0 -6 -4 -13 -10 -16 -5 -3 -10 1 -10 9 0 9 5 16 10 16 6 0 10 -4 10 -9z m-470 -761 c0 -14 -24 -22 -52 -18 l-23 5 25 11 c32 14 50 15 50 2z m206 -84 c1 0 -1 -16 -3 -33 -5 -29 -9 -33 -34 -33 -26 0 -28 2 -19 19 5 11 10 29 10 41 0 18 4 20 23 14 12 -3 23 -7 23 -8z"/>
 <path d="M1990 4389 c0 -5 5 -7 10 -4 6 3 10 8 10 11 0 2 -4 4 -10 4 -5 0 -10 -5 -10 -11z"/>
 <path d="M10850 4010 c0 -19 3 -21 12 -12 9 9 9 15 0 24 -9 9 -12 7 -12 -12z"/>
 <path d="M10837 3909 c-8 -29 3 -47 15 -25 5 9 5 23 0 32 -8 14 -10 13 -15 -7z"/>
 <path d="M3943 3103 c4 -3 10 -3 14 0 3 4 0 7 -7 7 -7 0 -10 -3 -7 -7z"/>
 <path d="M3940 3068 c0 -32 17 -46 26 -23 4 9 0 24 -10 33 -15 15 -16 14 -16 -10z"/>
 <path d="M4863 3053 c4 -3 10 -3 14 0 3 4 0 7 -7 7 -7 0 -10 -3 -7 -7z"/>
 <path d="M5025 3035 c-44 -7 -101 -19 -127 -25 -44 -11 -48 -14 -48 -41 0 -19 5 -29 15 -29 19 0 348 69 353 74 7 8 -36 25 -74 30 -22 2 -75 -2 -119 -9z"/>
 <path d="M3945 3010 c3 -5 8 -10 11 -10 2 0 4 5 4 10 0 6 -5 10 -11 10 -5 0 -7 -4 -4 -10z"/>
 </g>
<g id="layer105" fill="#b4b4b4" stroke="none">
 <path d="M14505 6390 c-3 -10 -1 -29 5 -40 8 -15 8 -31 1 -53 -5 -18 -13 -72 -16 -122 -5 -56 -14 -104 -26 -126 -24 -48 -53 -238 -53 -344 0 -22 -4 -43 -9 -46 -13 -9 -30 -157 -23 -206 8 -57 -3 -133 -19 -133 -22 0 -28 -50 -8 -65 16 -12 16 -15 2 -32 -9 -10 -19 -26 -22 -35 -7 -20 17 -48 41 -49 22 0 -8 -13 -57 -24 -31 -7 -33 -5 -28 14 3 11 1 23 -4 27 -5 3 -46 -4 -91 -15 -46 -11 -107 -25 -136 -32 -44 -9 -52 -14 -47 -29 4 -13 -1 -22 -15 -30 -23 -12 -26 -43 -7 -83 11 -25 16 -27 47 -22 19 3 55 12 80 20 25 8 54 13 65 10 11 -2 25 -4 30 -5 18 -3 -69 -39 -94 -40 -14 0 -38 -4 -55 -10 -17 -5 -43 -12 -58 -15 -19 -4 -28 -12 -28 -25 0 -11 6 -20 14 -20 27 0 183 32 394 81 261 60 324 78 317 90 -13 20 -126 9 -303 -31 -28 -6 -57 -10 -64 -8 -14 5 125 58 152 58 10 0 64 16 120 36 106 38 127 56 116 100 -7 27 -53 44 -66 24 -7 -11 -213 -69 -249 -70 -11 0 -10 5 4 20 10 11 48 26 94 37 48 11 67 19 52 21 -22 4 -23 6 -16 55 4 29 11 79 15 112 5 33 26 186 49 340 64 447 84 610 76 636 -7 22 -35 26 -35 5 0 -7 -6 -19 -14 -26 -8 -6 -17 -21 -19 -33 -2 -12 -5 -4 -6 18 -2 56 -24 85 -66 85 -25 0 -35 -5 -40 -20z m89 -315 c-6 -15 -8 -15 -16 -2 -4 8 -5 23 -2 32 6 15 8 15 16 2 4 -8 5 -23 2 -32z m-84 -700 c0 -8 -4 -15 -9 -15 -13 0 -22 16 -14 24 11 11 23 6 23 -9z m-317 -280 c1 -5 -10 -11 -25 -13 -16 -2 -28 1 -28 7 0 20 49 26 53 6z m107 -115 c-14 -4 -34 -8 -45 -9 -16 -1 -17 1 -5 9 8 5 29 9 45 9 29 -1 29 -1 5 -9z"/>
 <path d="M13325 6219 c-4 -6 -4 -30 -1 -54 7 -43 -5 -68 -20 -43 -10 16 -22 -17 -23 -64 -1 -30 2 -36 15 -31 14 5 15 -3 9 -68 -7 -73 -32 -159 -48 -159 -5 0 -5 5 -1 12 4 7 3 8 -4 4 -7 -4 -12 -17 -12 -29 -1 -12 -7 -33 -15 -47 -8 -14 -14 -37 -15 -51 0 -26 -27 -59 -48 -59 -32 0 -62 -24 -62 -51 0 -15 5 -31 10 -34 23 -14 6 -22 -57 -28 -38 -3 -132 -18 -211 -33 -94 -17 -149 -24 -162 -18 -40 19 -1 35 140 59 78 13 145 27 148 30 9 9 -51 5 -123 -9 -40 -8 -74 -10 -79 -5 -6 5 -1 76 13 181 12 95 24 214 27 263 l5 90 -22 -25 c-15 -16 -20 -19 -16 -7 5 12 1 17 -12 17 -10 0 -22 -10 -26 -22 -7 -21 -8 -20 -12 10 -4 27 -11 36 -39 48 -58 24 -84 -8 -64 -81 1 -5 2 -18 1 -28 -1 -17 -2 -17 -18 -1 -16 15 -17 15 -24 -2 -4 -11 -8 -37 -8 -59 1 -22 3 -33 6 -25 12 30 28 30 34 0 7 -32 -5 -183 -16 -200 -9 -14 -35 -13 -35 2 0 8 -3 9 -10 2 -6 -6 -13 -40 -17 -77 -5 -56 -3 -68 11 -73 9 -3 16 -10 16 -15 0 -6 -8 -6 -19 0 -21 12 -17 34 -50 -244 -11 -93 -29 -241 -41 -328 -11 -87 -20 -185 -20 -217 l0 -60 32 4 c21 3 41 -3 57 -15 13 -10 34 -19 46 -19 13 0 35 -7 51 -14 15 -8 32 -12 37 -9 6 3 7 1 4 -4 -4 -6 -53 -23 -109 -38 -115 -31 -138 -41 -138 -57 0 -31 609 91 709 142 136 69 257 245 292 424 14 72 14 226 0 269 -11 33 -70 97 -91 97 -4 0 0 -25 11 -55 10 -30 19 -65 19 -78 0 -13 5 -28 10 -33 12 -12 3 -44 -11 -44 -5 0 -9 16 -9 35 0 73 -73 205 -114 205 -8 0 -19 6 -25 14 -9 11 -5 17 16 31 16 9 47 38 70 64 41 45 42 45 43 19 0 -15 -4 -30 -10 -33 -5 -3 -10 -15 -10 -27 0 -14 -5 -18 -16 -14 -8 3 -23 -1 -31 -10 -15 -14 -14 -17 4 -36 l20 -20 53 49 c59 55 112 149 113 202 0 20 4 41 9 48 5 6 10 31 12 55 2 23 6 50 9 58 4 8 13 66 22 127 8 62 16 118 17 125 2 7 -7 14 -19 16 -24 4 -50 -28 -70 -87 -11 -33 -12 -30 -7 36 5 63 3 74 -15 92 -22 22 -75 28 -86 10z m84 -316 c-7 -29 -17 -53 -22 -53 -5 0 -7 10 -3 23 3 12 11 51 18 87 11 57 13 61 16 30 2 -19 -2 -59 -9 -87z m-812 60 c-4 -3 -7 0 -7 7 0 7 3 10 7 7 3 -4 3 -10 0 -14z m133 -52 c0 -6 -4 -13 -10 -16 -5 -3 -10 1 -10 9 0 9 5 16 10 16 6 0 10 -4 10 -9z m697 -38 c-4 -3 -7 0 -7 7 0 7 3 10 7 7 3 -4 3 -10 0 -14z m-710 -70 c-4 -3 -10 -3 -14 0 -3 4 0 7 7 7 7 0 10 -3 7 -7z m643 -90 c-11 -17 -11 -17 -6 0 3 10 6 24 7 30 0 9 2 9 5 0 3 -7 0 -20 -6 -30z m-663 5 c-3 -8 -6 -5 -6 6 -1 11 2 17 5 13 3 -3 4 -12 1 -19z m538 -392 c30 -72 16 -204 -20 -190 -10 4 -16 -3 -20 -23 -18 -85 -81 -171 -145 -197 -34 -13 -316 -76 -360 -80 -17 -1 -17 -5 5 169 8 61 17 145 21 188 4 42 10 77 13 77 3 0 71 11 151 25 181 31 238 32 273 5 14 -11 29 -29 32 -40 11 -36 25 -10 25 46 0 30 2 54 6 54 3 0 11 -15 19 -34z m-536 -18 c-13 -5 -26 -10 -29 -11 -3 -1 -6 3 -8 8 -4 11 38 25 52 17 5 -3 -1 -9 -15 -14z m581 -402 c0 -11 -19 -15 -25 -6 -3 5 1 10 9 10 9 0 16 -2 16 -4z m-653 -43 c-4 -3 -10 -3 -14 0 -3 4 0 7 7 7 7 0 10 -3 7 -7z m529 -62 c-26 -27 -60 -55 -74 -62 -15 -7 -34 -18 -42 -25 -16 -12 -97 -34 -126 -34 -27 0 47 46 129 80 40 17 89 43 107 60 55 47 59 35 6 -19z m-351 -132 c9 -14 4 -18 -33 -25 -25 -5 -32 -3 -32 9 0 9 10 18 23 20 12 2 25 5 29 6 4 0 10 -4 13 -10z m65 1 c-20 -13 -40 -13 -40 0 0 6 12 10 28 10 21 0 24 -2 12 -10z"/>
 <path d="M12770 6090 c0 -5 5 -10 11 -10 5 0 7 5 4 10 -3 6 -8 10 -11 10 -2 0 -4 -4 -4 -10z"/>
 <path d="M13270 5983 c0 -22 2 -25 10 -13 13 20 13 40 0 40 -5 0 -10 -12 -10 -27z"/>
 <path d="M11215 5954 c-77 -20 -160 -53 -219 -88 -77 -46 -236 -197 -257 -245 -8 -17 -17 -31 -21 -31 -7 0 -68 -102 -68 -113 0 -4 6 -4 14 -1 11 4 14 -5 12 -43 -3 -57 -22 -97 -42 -89 -8 3 -20 9 -28 12 -16 6 -37 -41 -66 -154 -26 -102 -25 -111 3 -84 13 12 29 22 35 22 20 0 14 -55 -8 -75 -24 -21 -26 -48 -5 -65 18 -15 10 -30 -16 -30 -27 0 -35 -27 -15 -49 9 -10 16 -21 16 -24 0 -13 -29 -7 -44 9 -15 14 -16 5 -16 -98 0 -412 191 -655 498 -635 237 15 483 192 630 453 125 221 190 534 164 786 -22 211 -74 341 -170 429 -46 42 -112 87 -112 76 0 -1 21 -26 48 -54 26 -28 58 -73 72 -99 14 -27 29 -55 35 -63 5 -8 11 -28 11 -45 1 -17 4 -49 8 -71 4 -28 1 -22 -10 18 -10 34 -24 62 -35 67 -12 7 -21 27 -25 61 -6 43 -15 60 -59 107 -48 52 -54 55 -70 42 -16 -13 -17 -13 -12 5 5 15 -2 25 -30 44 -29 19 -53 24 -117 27 -45 1 -90 1 -101 -2z m-385 -299 c-7 -9 -15 -13 -17 -11 -7 7 7 26 19 26 6 0 6 -6 -2 -15z m547 -39 c135 -90 177 -352 107 -661 -31 -136 -82 -250 -148 -329 -35 -42 -38 -49 -19 -44 20 5 21 4 12 -15 -13 -23 -70 -74 -78 -69 -3 2 -5 12 -3 22 3 18 -2 17 -61 -11 -128 -60 -236 -49 -310 30 -68 73 -89 143 -94 323 -6 172 10 279 62 424 82 230 243 369 420 361 57 -2 78 -8 112 -31z m329 -213 c-10 -26 -15 -11 -20 67 l-5 75 15 -63 c9 -35 13 -70 10 -79z m-1004 -391 c-2 -24 -9 -41 -14 -40 -12 4 -12 2 -3 62 9 59 24 40 17 -22z m-15 -99 c-3 -10 -5 -4 -5 12 0 17 2 24 5 18 2 -7 2 -21 0 -30z m10 -120 c-3 -10 -5 -2 -5 17 0 19 2 27 5 18 2 -10 2 -26 0 -35z m10 -45 c-3 -8 -6 -5 -6 6 -1 11 2 17 5 13 3 -3 4 -12 1 -19z m-122 -102 c8 -31 15 -59 15 -61 0 -10 -62 29 -67 42 -6 15 24 89 33 81 2 -3 11 -31 19 -62z m695 -270 c0 -3 -4 -8 -10 -11 -5 -3 -10 -1 -10 4 0 6 5 11 10 11 6 0 10 -2 10 -4z m-230 -130 c0 -2 -7 -6 -15 -10 -8 -3 -15 -1 -15 4 0 6 7 10 15 10 8 0 15 -2 15 -4z"/>
 <path d="M8887 5473 c-4 -3 -7 -16 -7 -27 0 -16 -3 -18 -9 -7 -5 7 -11 9 -14 4 -20 -32 -43 -442 -27 -472 5 -10 5 -23 1 -30 -12 -18 -53 8 -45 29 3 8 7 50 9 93 2 42 7 82 10 87 3 6 1 10 -5 10 -8 0 -9 7 -5 18 13 33 16 65 6 72 -7 4 -7 16 1 38 9 22 9 35 2 40 -5 4 -11 22 -12 41 -4 58 -74 100 -112 66 -10 -9 -24 -14 -29 -10 -17 10 -13 -4 10 -42 14 -23 19 -42 15 -59 l-7 -26 -25 38 c-15 21 -30 47 -34 59 -10 23 -9 26 -15 -130 -2 -49 -6 -112 -9 -140 -3 -27 -8 -97 -11 -155 -3 -58 -8 -132 -10 -165 -8 -88 -36 -501 -39 -565 -2 -30 -7 -125 -11 -211 l-8 -155 36 -52 c39 -55 39 -56 -10 -67 -38 -8 -47 -18 -38 -44 5 -17 11 -18 48 -9 23 5 80 16 127 24 47 8 195 37 330 65 283 57 351 84 451 177 141 130 219 306 235 532 12 181 -58 365 -160 417 -30 15 -31 15 -15 -3 47 -56 83 -153 95 -256 7 -63 -12 -258 -28 -273 -12 -12 -8 64 4 81 9 12 7 184 -2 184 -3 0 -5 21 -6 48 -1 56 -56 178 -84 187 -10 3 -21 17 -24 31 -4 14 -18 29 -32 34 -47 18 -177 10 -342 -20 -90 -17 -172 -30 -183 -30 -23 0 -23 -1 -8 215 18 262 13 386 -14 358z m-218 -310 c-1 -91 -9 -122 -26 -101 -15 18 -43 98 -34 98 4 0 15 18 25 40 10 22 22 40 27 40 5 0 9 -35 8 -77z m-12 -185 c-3 -8 -6 -5 -6 6 -1 11 2 17 5 13 3 -3 4 -12 1 -19z m368 -138 c-3 -5 -13 -10 -21 -10 -8 0 -12 5 -9 10 3 6 13 10 21 10 8 0 12 -4 9 -10z m-217 -24 c3 -16 0 -18 -24 -12 -35 9 -38 12 -29 26 11 17 49 7 53 -14z m172 -162 c0 -2 -7 -4 -15 -4 -8 0 -15 4 -15 10 0 5 7 7 15 4 8 -4 15 -8 15 -10z m-126 -12 c3 -5 -10 -16 -29 -25 -19 -9 -35 -23 -35 -32 0 -8 -4 -15 -10 -15 -5 0 -10 14 -10 30 0 22 6 33 23 40 29 11 54 12 61 2z m453 -28 c78 -49 93 -222 29 -336 -52 -92 -118 -136 -244 -164 -192 -42 -256 -54 -260 -50 -6 7 28 500 36 508 8 7 241 56 297 61 56 6 116 -2 142 -19z m151 -131 c-3 -42 -28 -59 -28 -20 0 32 9 57 22 57 5 0 8 -17 6 -37z m105 -158 c-3 -9 -8 -14 -10 -11 -3 3 -2 9 2 15 9 16 15 13 8 -4z m-53 -123 c0 -5 -7 -17 -15 -28 -14 -18 -14 -17 -4 9 12 27 19 34 19 19z m-753 -89 c-4 -3 -7 0 -7 7 0 7 3 10 7 7 3 -4 3 -10 0 -14z m703 3 c0 -2 -8 -10 -17 -17 -16 -13 -17 -12 -4 4 13 16 21 21 21 13z m-105 -116 c-10 -11 -21 -17 -24 -14 -3 3 3 12 13 20 28 20 32 17 11 -6z m-611 -9 c15 -17 15 -19 1 -25 -28 -10 -35 -7 -35 19 0 30 11 32 34 6z m486 -75 c0 -2 -7 -6 -15 -10 -8 -3 -15 -1 -15 4 0 6 7 10 15 10 8 0 15 -2 15 -4z"/>
 <path d="M7370 5248 c-23 -25 -24 -32 -10 -59 6 -11 8 -24 5 -29 -11 -18 -43 9 -55 46 -9 27 -15 33 -20 23 -12 -21 -28 -150 -40 -327 -11 -152 -33 -255 -65 -296 -13 -17 -13 -21 3 -32 15 -12 14 -13 -14 -14 -28 0 -33 -4 -42 -40 -9 -35 -7 -41 12 -54 21 -14 20 -14 -14 -29 -20 -9 -70 -17 -112 -20 -42 -3 -81 -8 -88 -12 -6 -4 -17 -4 -25 -1 -8 3 -17 1 -21 -5 -3 -6 -16 -9 -27 -8 -12 1 -29 -1 -37 -4 -40 -15 -194 -40 -267 -42 -45 -1 -86 -6 -92 -9 -7 -5 -11 2 -11 18 0 22 5 26 48 31 157 22 424 76 462 94 25 12 38 20 30 18 -65 -18 -342 -67 -374 -67 l-26 0 5 240 c3 133 6 244 6 248 1 4 1 48 0 97 -1 79 -4 92 -21 103 -18 11 -21 9 -31 -15 -11 -29 -13 -49 -24 -257 -4 -70 -11 -123 -15 -116 -4 7 -5 41 -2 77 4 51 2 63 -9 61 -11 -2 -13 6 -9 32 2 19 4 58 5 85 0 44 -2 50 -19 47 -14 -3 -17 1 -12 14 4 10 4 15 0 11 -4 -4 -13 -2 -21 5 -7 6 -16 8 -20 5 -3 -4 -12 -2 -19 4 -8 6 -25 8 -39 5 -30 -8 -42 -47 -26 -83 9 -19 9 -29 0 -39 -28 -34 -75 -3 -66 44 5 26 -6 62 -16 52 -3 -3 -8 -160 -11 -350 -3 -190 -9 -410 -12 -490 -3 -80 -6 -293 -7 -474 l-2 -330 30 -8 c17 -4 44 -21 60 -38 29 -31 72 -40 80 -17 3 6 19 12 35 13 38 1 40 -24 3 -31 -16 -3 -70 -16 -120 -28 -88 -20 -93 -23 -93 -48 0 -31 -15 -32 213 17 87 19 280 59 430 89 299 61 317 65 399 106 220 110 361 363 345 619 -10 161 -55 241 -164 291 -65 31 -76 44 -45 53 30 10 107 93 136 146 37 67 53 154 66 360 6 96 18 206 26 244 14 73 11 85 -27 86 -32 0 -51 -49 -68 -180 l-9 -65 1 74 c0 57 -3 75 -16 82 -8 5 -13 17 -10 27 6 24 -49 72 -82 72 -13 0 -33 -10 -45 -22z m147 -255 c-4 -3 -7 0 -7 7 0 7 3 10 7 7 3 -4 3 -10 0 -14z m3 -68 c0 -53 -1 -54 -18 -37 -14 13 -15 19 -5 25 7 4 13 21 13 37 0 17 2 30 5 30 3 0 5 -25 5 -55z m-175 -52 c-6 -35 -14 -40 -33 -21 -17 17 -15 34 11 73 l22 34 3 -26 c2 -14 1 -41 -3 -60z m-1019 7 c9 0 14 -11 14 -30 l0 -31 -35 34 c-25 25 -33 39 -28 52 6 17 8 17 21 -3 8 -12 21 -22 28 -22z m1179 -105 c-3 -26 -8 -45 -11 -43 -2 3 -1 26 2 52 4 25 9 44 12 42 2 -3 1 -26 -3 -51z m-1165 -52 l0 -77 -21 21 c-18 18 -20 27 -13 60 4 21 8 43 8 48 1 9 16 24 24 25 1 0 2 -35 2 -77z m182 -90 c-5 -24 -22 -22 -22 3 0 8 -4 14 -9 14 -5 0 -2 15 7 33 l16 32 6 -30 c3 -16 4 -40 2 -52z m961 46 c-10 -52 -59 -131 -116 -187 -39 -38 -56 -50 -60 -39 -7 18 0 28 40 55 17 12 35 31 38 42 3 10 18 32 33 48 16 17 36 48 47 71 22 49 27 52 18 10z m-205 -51 c-6 -16 -36 -34 -44 -26 -3 4 -4 14 -1 23 7 17 51 21 45 3z m-761 -55 c-4 -3 -7 0 -7 7 0 7 3 10 7 7 3 -4 3 -10 0 -14z m-177 -108 c0 -8 -4 -15 -10 -15 -5 0 -10 7 -10 15 0 8 5 15 10 15 6 0 10 -7 10 -15z m1167 -212 c-4 -3 -7 0 -7 7 0 7 3 10 7 7 3 -4 3 -10 0 -14z m-1042 -3 c3 -5 2 -10 -4 -10 -5 0 -13 5 -16 10 -3 6 -2 10 4 10 5 0 13 -4 16 -10z m728 -76 c44 -32 67 -94 67 -176 0 -78 -18 -131 -65 -192 -26 -34 -117 -88 -170 -101 -106 -25 -459 -94 -463 -91 -2 3 -1 115 3 249 l8 244 221 43 c121 23 226 44 231 46 28 11 144 -4 168 -22z m-638 -15 c-16 -5 -35 -15 -41 -24 -9 -12 -13 -11 -22 10 -12 25 -11 25 41 24 47 -1 49 -2 22 -10z m819 -25 c9 -24 7 -104 -3 -104 -19 0 -33 31 -27 57 4 16 8 36 9 46 2 21 13 22 21 1z m-1044 -154 c0 -5 -5 -10 -11 -10 -5 0 -7 5 -4 10 3 6 8 10 11 10 2 0 4 -4 4 -10z m167 -202 c-3 -20 -4 -21 -11 -5 -5 9 -5 29 0 45 7 25 8 26 11 5 3 -13 3 -33 0 -45z m939 -45 c-10 -10 -19 5 -10 18 6 11 8 11 12 0 2 -7 1 -15 -2 -18z m-76 -87 c0 -3 -5 -8 -12 -12 -7 -4 -8 -3 -4 4 7 12 16 16 16 8z m-100 -90 c0 -3 -5 -8 -12 -12 -7 -4 -8 -3 -4 4 7 12 16 16 16 8z m-770 -26 c0 -5 -11 -10 -25 -10 -14 0 -25 5 -25 10 0 6 11 10 25 10 14 0 25 -4 25 -10z m720 -10 c-24 -15 -36 -11 -14 4 10 8 21 12 24 10 2 -3 -2 -9 -10 -14z m-413 -67 c-4 -3 -10 -3 -14 0 -3 4 0 7 7 7 7 0 10 -3 7 -7z m-50 -60 c-4 -3 -10 -3 -14 0 -3 4 0 7 7 7 7 0 10 -3 7 -7z"/>
 <path d="M14598 5223 c7 -3 16 -2 19 1 4 3 -2 6 -13 5 -11 0 -14 -3 -6 -6z"/>
 <path d="M14820 5210 c0 -7 3 -10 7 -7 3 4 3 10 0 14 -4 3 -7 0 -7 -7z"/>
 <path d="M5184 4888 c-4 -7 -10 -63 -12 -126 -3 -74 -8 -112 -15 -109 -7 2 -10 25 -8 55 4 86 2 88 -102 131 -52 21 -85 14 -102 -20 -15 -28 -15 -32 0 -49 10 -11 12 -20 6 -24 -5 -4 -22 9 -38 29 -15 19 -33 35 -39 35 -6 0 -14 -21 -18 -47 -10 -77 -9 -1550 1 -1568 8 -14 14 -12 47 15 41 32 76 39 76 16 0 -8 -4 -18 -10 -21 -5 -3 -10 -21 -10 -39 0 -25 7 -38 25 -50 49 -32 105 -11 105 39 0 28 20 75 31 75 4 0 10 14 14 30 10 44 23 37 30 -17 11 -85 16 -101 36 -119 10 -9 21 -15 23 -13 5 5 21 1424 16 1424 -1 0 -3 73 -5 161 -3 152 -12 204 -35 204 -5 0 -12 -5 -16 -12z m-226 -293 c0 -25 -1 -25 -15 -5 -8 11 -11 25 -8 30 10 16 23 3 23 -25z m209 -57 c-3 -8 -6 -5 -6 6 -1 11 2 17 5 13 3 -3 4 -12 1 -19z m-199 -76 c-2 -41 -6 -52 -18 -50 -21 4 -24 32 -9 83 17 56 29 39 27 -33z m202 -22 c0 -5 -4 -10 -10 -10 -5 0 -10 5 -10 10 0 6 5 10 10 10 6 0 10 -4 10 -10z m0 -55 c0 -16 -6 -25 -15 -25 -28 0 -18 40 13 49 1 1 2 -10 2 -24z m0 -215 c0 -5 -4 -10 -10 -10 -5 0 -10 5 -10 10 0 6 5 10 10 10 6 0 10 -4 10 -10z m-195 -645 c0 -75 -13 -92 -40 -51 -15 23 -15 27 0 56 9 18 14 38 11 45 -6 16 4 27 18 22 6 -2 11 -33 11 -72z"/>
 <path d="M3416 4628 c-9 -13 -16 -43 -16 -70 0 -52 -9 -90 -70 -292 -22 -76 -39 -146 -36 -155 3 -9 -4 -4 -17 11 -12 15 -36 30 -52 34 -25 5 -35 0 -58 -25 -25 -29 -67 -42 -67 -22 0 14 44 46 95 71 47 23 69 61 81 142 4 24 10 45 14 48 12 9 62 189 58 212 -5 39 -30 25 -49 -27 -21 -61 -23 -82 -6 -88 6 -2 4 -3 -5 -2 -13 2 -21 -15 -38 -79 -11 -44 -29 -105 -38 -135 l-18 -55 -59 -12 c-63 -13 -315 -58 -547 -96 -121 -20 -139 -21 -152 -8 -11 12 -53 101 -124 260 l-11 25 0 -28 c-1 -16 4 -38 11 -50 7 -12 13 -28 14 -35 2 -13 17 -47 49 -114 16 -33 7 -36 -18 -7 -12 14 -24 18 -39 14 -19 -7 -20 -4 -16 36 5 46 -5 88 -30 127 -12 19 -17 20 -30 10 -13 -11 -15 -10 -10 10 6 21 4 22 -29 16 -29 -5 -42 -1 -80 26 -37 27 -50 31 -71 24 -43 -16 -50 -39 -24 -84 22 -39 22 -40 3 -40 -11 0 -32 6 -47 12 -20 10 -28 10 -31 1 -2 -6 -13 -21 -23 -33 -20 -23 -20 -60 -1 -98 5 -9 16 -34 25 -55 12 -29 21 -37 33 -33 13 5 14 4 4 -8 -10 -12 -8 -25 13 -66 14 -29 26 -55 26 -60 0 -8 177 -414 231 -529 17 -35 57 -125 89 -200 176 -409 202 -468 214 -486 7 -11 18 -36 25 -56 11 -36 13 -37 41 -26 22 9 33 8 42 -1 17 -17 6 -24 -47 -32 -5 -1 -1 -5 10 -9 14 -6 29 -1 51 15 17 13 34 21 37 18 3 -4 14 -3 24 1 10 5 32 9 48 11 44 3 128 29 163 49 16 10 37 31 46 47 20 32 66 78 80 78 5 0 6 -21 2 -47 -18 -120 -18 -128 2 -146 19 -17 21 -13 75 150 80 241 131 409 171 563 20 74 56 194 80 265 47 137 111 340 221 694 l66 214 -22 21 c-15 15 -23 17 -26 8 -3 -6 -8 -10 -12 -7 -4 2 -18 -30 -31 -71 -13 -41 -27 -77 -31 -80 -4 -2 -5 4 -2 14 2 10 -3 24 -11 32 -15 11 -15 14 1 25 17 12 17 15 -3 52 -12 21 -27 54 -33 74 -24 73 -83 103 -115 57z m124 -278 c0 -5 -4 -10 -10 -10 -5 0 -10 5 -10 10 0 6 5 10 10 10 6 0 10 -4 10 -10z m-1350 -54 c0 -3 -4 -8 -10 -11 -5 -3 -10 -1 -10 4 0 6 5 11 10 11 6 0 10 -2 10 -4z m1351 -53 c-8 -15 -10 -15 -11 -2 0 17 10 32 18 25 2 -3 -1 -13 -7 -23z m59 3 c0 -2 -7 -6 -15 -10 -8 -3 -15 -1 -15 4 0 6 7 10 15 10 8 0 15 -2 15 -4z m-1633 -82 c-3 -3 -12 -4 -19 -1 -8 3 -5 6 6 6 11 1 17 -2 13 -5z m139 -81 c15 -3 27 -22 42 -65 12 -34 21 -63 19 -65 -3 -2 -16 1 -31 7 -24 9 -27 14 -21 40 8 38 -8 60 -45 60 -32 0 -41 7 -33 27 4 10 13 12 27 8 11 -4 30 -9 42 -12z m1158 -47 c-3 -9 -13 -16 -22 -16 -13 0 -12 3 3 20 20 23 29 21 19 -4z m-887 7 c-4 -3 -10 -3 -14 0 -3 4 0 7 7 7 7 0 10 -3 7 -7z m11 -39 c32 -22 27 -34 -11 -27 -24 4 -39 0 -51 -13 -15 -14 -19 -15 -27 -3 -13 21 -11 30 9 45 23 18 53 17 80 -2z m828 -126 c-8 -50 -25 -76 -37 -56 -11 17 2 71 20 85 23 18 24 17 17 -29z m-177 4 c8 -15 1 -17 -68 -18 l-76 -1 49 13 c27 7 53 17 59 23 12 12 23 7 36 -17z m-844 -22 c3 -5 1 -10 -4 -10 -6 0 -11 5 -11 10 0 6 2 10 4 10 3 0 8 -4 11 -10z m678 -1 c38 -1 -24 -16 -95 -23 l-63 -6 48 14 c27 8 51 17 55 20 3 4 12 4 20 1 7 -3 23 -5 35 -6z m-218 -19 c-4 -6 8 -10 27 -11 20 -1 -2 -9 -60 -21 -93 -21 -93 -21 -74 -40 19 -20 21 -20 268 22 137 23 252 47 256 53 4 6 9 1 13 -14 6 -24 -72 -325 -159 -609 -19 -63 -40 -136 -46 -162 -13 -49 -35 -64 -47 -30 -3 9 -43 112 -88 227 -45 116 -103 264 -129 331 -48 124 -82 184 -102 177 -7 -2 -14 10 -16 26 -2 16 -1 28 2 26 12 -7 135 16 138 26 2 5 8 9 13 9 6 0 7 -4 4 -10z m-105 -164 c0 -7 11 -34 24 -59 23 -46 22 -63 -1 -49 -7 4 -14 21 -17 37 -3 16 -12 33 -21 37 -15 9 -20 39 -9 51 9 9 24 -2 24 -17z m778 -128 c-5 -32 -28 -35 -28 -4 0 17 5 26 16 26 10 0 14 -7 12 -22z m-731 -25 c-4 -3 -7 0 -7 7 0 7 3 10 7 7 3 -4 3 -10 0 -14z m28 -53 c3 -5 1 -10 -4 -10 -6 0 -11 5 -11 10 0 6 2 10 4 10 3 0 8 -4 11 -10z m132 -347 c-4 -3 -10 -3 -14 0 -3 4 0 7 7 7 7 0 10 -3 7 -7z m383 -161 c0 -13 -12 -22 -22 -16 -10 6 -1 24 13 24 5 0 9 -4 9 -8z m-250 -22 c0 -5 -7 -10 -16 -10 -8 0 -12 5 -9 10 3 6 10 10 16 10 5 0 9 -4 9 -10z m-25 -150 c0 -10 -12 -16 -37 -18 -28 -2 -38 1 -38 12 0 8 8 17 18 19 30 9 57 2 57 -13z"/>
 <path d="M4788 3273 c-6 -11 7 -181 14 -189 25 -24 37 79 19 160 -6 29 -25 45 -33 29z"/>
 <path d="M4985 3023 c-11 -2 -37 -11 -57 -19 -21 -7 -38 -11 -38 -9 0 3 -9 1 -20 -5 -11 -6 -17 -16 -14 -25 8 -20 54 -20 54 0 0 8 5 15 10 15 6 0 10 -5 10 -11 0 -7 11 -9 28 -6 62 11 187 40 192 44 19 18 -103 30 -165 16z"/>
 <path d="M2915 2614 c-106 -21 -258 -55 -272 -59 -11 -4 -6 -31 13 -63 1 -3 299 63 349 78 17 4 43 11 59 15 27 6 28 7 11 25 -21 24 -60 25 -160 4z"/>
 </g>
<g id="layer106" fill="#cfcfcf" stroke="none">
 <path d="M14515 6399 c-4 -6 -4 -25 -1 -44 4 -18 2 -64 -4 -101 -5 -38 -12 -89 -15 -114 -2 -25 -17 -128 -33 -230 -36 -222 -61 -396 -73 -505 -17 -150 -21 -170 -36 -187 -8 -9 -13 -27 -11 -40 4 -31 52 -37 82 -10 11 12 35 24 51 27 61 14 67 17 57 27 -6 6 -17 6 -30 -1 -40 -22 -44 -15 -39 62 3 39 12 115 20 167 8 52 20 124 25 160 6 36 16 106 22 155 12 98 34 259 51 370 5 39 13 107 16 153 5 70 3 85 -12 102 -19 21 -60 27 -70 9z"/>
 <path d="M13329 6214 c-10 -12 -10 -22 -1 -46 6 -17 9 -34 6 -39 -2 -4 -11 -61 -20 -126 -19 -144 -44 -243 -79 -305 -32 -57 -39 -63 -92 -77 -35 -10 -43 -16 -43 -35 0 -30 29 -56 63 -56 61 0 163 114 192 215 21 70 65 348 65 407 0 37 -5 50 -22 62 -29 20 -52 20 -69 0z"/>
 <path d="M12620 6074 c-6 -16 -7 -32 0 -43 10 -20 -4 -247 -20 -318 -6 -23 -14 -82 -20 -130 -5 -48 -14 -128 -20 -178 -14 -112 -13 -106 -45 -419 -27 -257 -27 -259 -7 -285 33 -45 92 -40 401 35 80 20 166 46 191 59 66 34 142 122 192 222 l43 87 0 115 c0 109 -2 120 -30 176 -23 47 -41 67 -78 89 -65 40 -124 43 -277 16 -236 -41 -269 -45 -282 -32 -9 9 -9 17 0 34 6 13 11 34 11 48 0 48 11 186 26 310 19 171 19 196 -5 220 -29 29 -68 26 -80 -6z m567 -669 c37 -26 61 -77 68 -145 6 -58 3 -74 -24 -144 -41 -107 -92 -181 -148 -216 -47 -30 -91 -40 -77 -19 4 8 -3 9 -22 5 -16 -3 -57 -11 -92 -17 -64 -12 -92 -28 -50 -30 33 -1 -30 -23 -128 -44 -44 -10 -85 -22 -92 -28 -9 -7 -16 -7 -24 1 -19 19 10 42 56 42 38 1 40 2 22 15 -11 8 -30 15 -43 15 -13 0 -26 7 -30 15 -8 24 4 30 33 16 15 -6 28 -10 31 -8 4 4 40 273 41 312 1 11 4 34 8 51 6 30 3 33 -30 45 -36 13 -41 24 -30 67 4 15 14 22 30 22 14 0 86 12 162 26 133 25 201 27 272 7 22 -6 24 -5 11 10 -12 15 -11 17 11 17 13 0 33 -7 45 -15z m-536 -268 c-13 -13 -26 -3 -16 12 3 6 11 8 17 5 6 -4 6 -10 -1 -17z"/>
 <path d="M13150 5365 c-1 -5 -3 -18 -5 -27 -2 -9 6 -24 16 -34 18 -16 19 -16 19 2 -1 21 -29 75 -30 59z"/>
 <path d="M12875 5329 c-55 -10 -115 -22 -132 -25 -37 -7 -45 -24 -11 -24 55 0 350 54 332 61 -30 12 -81 9 -189 -12z"/>
 <path d="M12740 4834 l-35 -14 40 6 c22 3 47 10 55 15 25 14 -20 10 -60 -7z"/>
 <path d="M14612 5988 c-7 -7 -12 -24 -12 -39 0 -15 -7 -43 -16 -64 -14 -34 -14 -39 2 -62 13 -20 18 -23 24 -12 9 15 25 189 18 189 -2 0 -9 -5 -16 -12z"/>
 <path d="M12747 5950 c-6 -29 19 -99 35 -100 12 0 21 93 11 109 -18 28 -40 24 -46 -9z"/>
 <path d="M11160 5931 c-36 -10 -78 -24 -94 -30 -43 -17 -159 -97 -192 -132 l-29 -31 25 7 c14 4 39 20 55 36 36 34 96 61 113 50 9 -5 -8 -21 -49 -46 -67 -41 -132 -101 -194 -180 -22 -27 -42 -52 -45 -55 -8 -7 -70 -134 -70 -143 0 -4 -16 -41 -35 -81 -24 -52 -38 -100 -47 -165 -7 -50 -16 -91 -20 -91 -4 0 -12 -9 -18 -21 -9 -16 -8 -26 5 -46 13 -20 14 -27 4 -33 -6 -5 -18 -6 -26 -3 -19 7 -17 -41 2 -57 19 -16 20 -50 1 -50 -7 0 -19 7 -26 15 -7 8 -16 15 -21 15 -11 0 -12 -143 -2 -154 4 -4 6 -24 4 -45 -1 -22 2 -42 7 -45 13 -8 35 76 30 117 -5 46 18 44 25 -2 3 -20 15 -76 25 -124 19 -82 19 -87 3 -73 -10 9 -22 16 -28 16 -5 0 -18 9 -28 20 -10 11 -20 18 -22 16 -8 -8 39 -160 64 -211 27 -54 111 -147 125 -139 4 3 8 -1 8 -8 0 -22 99 -66 174 -78 259 -41 549 137 731 448 116 200 187 527 165 762 -18 184 -51 299 -110 384 -30 44 -100 109 -108 101 -2 -2 12 -26 32 -53 20 -27 36 -54 36 -59 0 -5 14 -28 31 -51 24 -33 28 -46 20 -56 -9 -10 -8 -21 0 -42 6 -16 13 -51 16 -77 2 -27 8 -58 12 -70 15 -39 -4 -280 -31 -400 -14 -66 -20 -54 -8 19 32 200 9 500 -44 564 -7 8 -25 45 -40 83 -35 83 -61 106 -115 100 -24 -3 -50 1 -70 11 -33 18 -41 36 -15 36 9 0 14 6 11 13 -2 6 -14 11 -26 10 -15 -2 -25 5 -33 22 -14 32 -58 35 -58 5 0 -11 -4 -20 -10 -20 -5 0 -15 9 -22 20 -7 11 -15 20 -18 19 -3 0 -34 -8 -70 -18z m-5 -71 c-11 -5 -29 -9 -40 -9 -17 -1 -17 1 -5 9 8 5 26 9 40 9 23 0 23 -1 5 -9z m250 -124 c19 -10 19 -11 -3 -14 -23 -3 -53 -48 -45 -68 2 -6 26 -34 54 -63 58 -60 73 -91 94 -192 31 -146 11 -378 -49 -564 -14 -43 -24 -80 -22 -82 4 -5 46 78 46 92 0 8 5 17 12 21 45 28 -73 -197 -158 -299 -42 -52 -67 -71 -153 -116 -56 -29 -105 -51 -108 -48 -3 3 21 19 53 35 55 28 119 82 98 82 -6 0 -14 -4 -20 -9 -16 -16 -116 -41 -163 -41 -25 0 -63 4 -83 9 -22 5 -38 5 -38 0 0 -5 -5 -9 -11 -9 -6 0 -9 7 -6 15 4 8 2 17 -4 20 -5 4 -26 30 -47 58 -74 101 -103 342 -63 532 45 218 93 324 191 424 81 82 151 121 231 128 33 3 62 9 65 14 2 4 -15 13 -38 20 -61 16 -155 5 -213 -25 -60 -32 -71 -33 -25 -3 65 43 117 58 179 51 31 -3 67 -12 81 -19 15 -7 36 -9 52 -5 46 13 49 19 33 51 l-16 30 28 -7 c15 -4 37 -12 48 -18z m79 -63 c39 -49 66 -105 72 -147 l5 -41 -15 33 c-9 18 -20 51 -26 73 -6 21 -25 55 -41 74 -17 19 -28 35 -24 35 4 0 17 -12 29 -27z m94 -348 c1 -94 -12 -128 -22 -58 -8 66 4 204 15 158 4 -16 7 -61 7 -100z m-826 -27 c-7 -7 -12 -8 -12 -2 0 14 12 26 19 19 2 -3 -1 -11 -7 -17z m-23 -103 c-5 -33 -12 -77 -15 -97 -6 -32 -3 -41 17 -57 23 -19 23 -20 2 -15 -20 5 -22 1 -28 -61 -10 -93 15 -285 37 -285 4 0 8 -11 8 -24 0 -14 18 -44 46 -75 40 -45 42 -49 17 -34 -40 22 -95 105 -117 173 -9 30 -20 93 -23 140 -3 47 -10 90 -15 97 -6 7 -4 20 5 35 8 13 19 55 25 93 12 73 41 180 47 173 2 -2 0 -30 -6 -63z m832 -62 c-10 -17 -10 -17 -11 2 0 11 4 31 8 45 l7 25 3 -27 c2 -15 -1 -35 -7 -45z m-41 -232 c0 -6 -4 -13 -10 -16 -5 -3 -10 1 -10 9 0 9 5 16 10 16 6 0 10 -4 10 -9z m7 -258 c-4 -3 -7 0 -7 7 0 7 3 10 7 7 3 -4 3 -10 0 -14z m-104 -145 c-26 -35 -54 -67 -62 -72 -7 -5 -31 -24 -51 -42 -21 -19 -86 -59 -146 -90 -60 -31 -113 -59 -119 -63 -5 -4 -28 -4 -50 0 -22 3 -33 7 -24 8 9 0 22 7 28 15 6 7 30 16 52 20 91 15 240 109 353 225 33 34 61 61 63 61 3 0 -17 -28 -44 -62z m-536 -275 c-4 -3 -10 -3 -14 0 -3 4 0 7 7 7 7 0 10 -3 7 -7z"/>
 <path d="M12740 5855 c-1 -11 -1 -35 0 -53 1 -18 -6 -50 -16 -70 -24 -50 -29 -168 -7 -176 8 -4 13 -13 9 -21 -4 -11 2 -15 20 -15 15 0 23 4 19 11 -9 14 -12 139 -4 139 4 0 10 30 14 67 4 36 9 72 12 80 3 7 -2 13 -11 13 -9 0 -21 10 -26 23 -8 20 -9 21 -10 2z"/>
 <path d="M14600 5782 c0 -7 -9 -12 -20 -12 -26 0 -27 -40 -1 -64 17 -16 18 -15 25 30 3 26 4 50 1 52 -3 3 -5 0 -5 -6z"/>
 <path d="M14546 5694 c-4 -10 -10 -47 -13 -80 -4 -50 -1 -62 12 -68 9 -3 13 -10 10 -16 -4 -6 -10 -8 -15 -5 -17 11 -22 -17 -6 -34 15 -16 15 -19 1 -31 -22 -18 -19 -32 4 -18 12 7 23 32 30 67 15 80 20 151 11 151 -5 0 -12 12 -17 27 -9 25 -10 25 -17 7z"/>
 <path d="M12878 5543 c6 -2 18 -2 25 0 6 3 1 5 -13 5 -14 0 -19 -2 -12 -5z"/>
 <path d="M12828 5533 c7 -3 16 -2 19 1 4 3 -2 6 -13 5 -11 0 -14 -3 -6 -6z"/>
 <path d="M8681 5431 c-11 -11 -22 -17 -25 -13 -3 3 -6 -2 -6 -10 0 -9 7 -22 16 -29 15 -12 16 -29 11 -124 -15 -273 -28 -462 -33 -485 l-6 -25 -9 24 c-10 25 -11 48 -9 201 1 56 -4 97 -14 120 l-15 35 -2 -30 c-3 -72 -8 -133 -14 -177 -4 -36 -2 -48 7 -48 9 0 10 -2 1 -8 -12 -7 -15 -39 -33 -342 -6 -102 -15 -237 -20 -302 -6 -64 -10 -150 -10 -191 0 -73 1 -76 38 -115 20 -22 53 -44 72 -50 31 -10 139 -40 165 -47 6 -1 -43 -14 -107 -29 -111 -26 -136 -38 -105 -48 44 -16 178 5 587 92 210 45 362 177 451 391 57 139 77 350 44 472 -8 32 -15 60 -15 63 0 3 -5 2 -12 -2 -7 -4 -8 -3 -4 4 9 16 -26 81 -63 116 -17 17 -31 26 -31 21 0 -8 47 -75 60 -85 4 -3 7 -32 8 -64 1 -37 7 -65 17 -76 8 -9 12 -20 8 -24 -5 -4 -9 -22 -9 -39 -1 -18 -7 -72 -14 -122 -9 -65 -9 -90 -1 -93 6 -2 11 -8 11 -14 0 -6 -6 -8 -14 -5 -10 4 -20 -14 -36 -61 -46 -139 -153 -283 -265 -359 -71 -47 -112 -63 -240 -87 -44 -9 -98 -20 -120 -26 -22 -5 -51 -9 -65 -9 -22 0 -21 2 10 14 19 7 49 14 67 14 17 1 61 15 98 31 37 17 71 30 75 30 22 0 161 73 213 111 66 49 143 156 176 244 12 31 28 96 36 145 25 144 -2 263 -81 350 -48 53 -108 80 -199 88 -63 5 -66 7 -35 13 19 4 52 4 73 -1 77 -17 100 9 47 53 -28 24 -37 26 -103 23 -39 -2 -125 -13 -191 -25 -65 -11 -133 -21 -150 -21 l-31 0 3 95 c2 63 0 95 -7 95 -6 0 -11 5 -11 10 0 6 6 10 14 10 10 0 14 12 13 38 0 20 3 82 7 137 5 55 5 97 1 93 -4 -4 -17 -3 -30 2 -23 9 -24 7 -31 -68 -4 -42 -8 -143 -8 -224 -1 -136 1 -148 19 -162 19 -15 19 -15 -8 -16 -16 0 -35 -7 -44 -15 -8 -8 -18 -13 -23 -10 -4 3 -6 116 -3 251 5 264 3 282 -44 303 -31 14 -30 14 -52 -8z m186 -108 c-4 -3 -7 0 -7 7 0 7 3 10 7 7 3 -4 3 -10 0 -14z m308 -463 c-29 -12 -98 -12 -90 0 3 6 30 10 58 9 38 0 47 -3 32 -9z m-360 -21 c9 -28 -6 -42 -39 -33 -28 7 -33 23 -14 42 19 19 46 14 53 -9z m239 12 c8 -12 -18 -21 -56 -21 -26 0 -29 2 -18 15 14 16 65 21 74 6z m-414 -150 c0 -10 -9 -21 -20 -24 -13 -3 -20 0 -20 10 0 8 5 11 10 8 6 -3 10 1 10 9 0 9 5 16 10 16 6 0 10 -8 10 -19z m786 -44 c40 -77 43 -173 11 -267 -41 -118 -51 -140 -64 -140 -7 0 -13 -5 -13 -12 0 -9 -3 -8 -12 1 -11 11 -10 14 0 18 6 3 9 9 6 14 -3 5 -18 -8 -34 -30 -59 -81 -124 -110 -340 -155 -168 -35 -160 -36 -154 22 2 26 11 139 19 251 14 192 13 205 -3 217 -29 21 -52 24 -52 6 0 -18 -17 -291 -25 -402 -4 -58 -2 -67 18 -83 l22 -18 -25 7 c-14 4 -31 7 -37 7 -9 0 -11 22 -8 86 3 47 8 151 11 231 2 80 6 168 7 195 2 59 10 64 88 58 37 -3 69 1 93 11 21 9 50 13 69 9 19 -3 43 -1 53 4 11 5 37 6 59 3 l40 -6 -55 -8 c-30 -4 -71 -12 -90 -17 -19 -6 -48 -12 -65 -15 -16 -3 -52 -12 -79 -21 -45 -14 -48 -17 -31 -29 24 -18 16 -18 154 10 259 54 319 46 366 -47 29 -59 33 -132 11 -215 -7 -29 -10 -52 -5 -52 18 0 52 97 60 173 9 85 -5 166 -37 229 -13 24 -13 27 1 21 9 -3 27 -28 41 -56z m-806 -337 c-7 -146 -16 -274 -20 -285 -7 -19 -9 -18 -20 7 -10 22 -10 43 -1 103 7 41 12 96 10 123 -1 26 2 55 6 65 4 10 5 47 1 82 -5 46 -2 76 10 111 9 26 14 62 11 80 -3 18 -2 35 1 39 14 14 14 -65 2 -325z m571 -250 c-13 -11 -29 -20 -36 -20 -7 0 -20 -3 -29 -6 -34 -13 -14 15 22 29 53 23 73 21 43 -3z m-161 -39 c0 -10 -69 -25 -77 -17 -7 7 35 24 60 25 9 1 17 -3 17 -8z m-260 -47 c0 -13 -23 -24 -51 -24 -20 0 -23 10 -13 47 6 20 7 20 35 5 16 -10 29 -22 29 -28z"/>
 <path d="M13330 5441 c0 -5 6 -16 14 -23 7 -8 24 -42 36 -76 26 -72 45 -82 35 -19 -8 49 -20 73 -48 105 -21 23 -37 29 -37 13z"/>
 <path d="M12506 5374 c-4 -33 -9 -77 -12 -99 -4 -28 -3 -37 5 -30 15 15 33 153 22 172 -6 11 -10 -2 -15 -43z"/>
 <path d="M14530 5375 c0 -9 -7 -29 -15 -44 -12 -24 -12 -31 -1 -46 16 -23 22 -13 31 53 5 35 3 52 -4 52 -6 0 -11 -7 -11 -15z"/>
 <path d="M8600 5295 c0 -19 2 -35 4 -35 2 0 6 16 8 35 2 19 0 35 -4 35 -4 0 -8 -16 -8 -35z"/>
 <path d="M10580 5300 c0 -7 3 -10 7 -7 3 4 3 10 0 14 -4 3 -7 0 -7 -7z"/>
 <path d="M7375 5246 c-22 -22 -24 -29 -15 -47 7 -12 9 -47 6 -92 -4 -40 -9 -106 -12 -147 -8 -116 -25 -240 -34 -245 -14 -8 -22 34 -15 73 4 24 1 47 -11 74 -16 36 -16 39 2 59 13 14 20 43 25 97 4 42 10 88 13 102 5 18 0 33 -18 55 l-24 30 -11 -40 c-5 -22 -17 -128 -25 -235 -14 -179 -20 -221 -41 -274 -7 -16 -6 -17 14 -7 17 9 26 9 41 -2 20 -14 20 -14 -1 -41 -22 -28 -59 -35 -59 -11 0 17 -16 20 -25 5 -3 -5 -1 -10 4 -10 6 0 11 -7 11 -15 0 -9 -9 -15 -25 -15 -44 0 -63 -83 -22 -94 21 -6 21 -6 -8 -25 -18 -11 -57 -21 -100 -24 -38 -3 -155 -22 -258 -41 -103 -20 -214 -36 -245 -35 -31 0 -66 -1 -77 -3 -27 -4 -29 21 -5 52 16 21 21 22 29 10 8 -12 35 -9 188 19 98 17 190 34 206 36 26 4 71 24 54 25 -9 0 -185 -31 -286 -50 -42 -8 -57 -7 -63 2 -4 7 -4 103 0 213 11 321 10 376 -10 389 -25 15 -33 1 -34 -62 -1 -31 -4 -91 -8 -132 -3 -41 -8 -144 -11 -228 -4 -152 -7 -172 -26 -172 -6 0 -8 3 -6 8 3 4 -3 41 -14 82 -14 59 -19 116 -19 272 -2 215 -7 251 -36 257 -10 2 -22 8 -25 14 -4 5 -18 7 -32 3 -29 -7 -46 -58 -28 -80 12 -14 7 -534 -6 -626 -5 -39 -7 -42 -14 -20 -4 14 -7 42 -8 63 -1 20 -6 37 -12 37 -7 0 -9 9 -5 23 4 12 12 48 17 80 10 51 9 63 -9 105 -20 46 -20 51 -5 101 15 52 14 53 -8 77 -18 19 -23 35 -21 69 1 24 -3 47 -8 50 -6 4 -11 -71 -12 -207 0 -117 -2 -224 -3 -238 -1 -14 -5 -243 -9 -510 l-8 -485 41 -41 c54 -55 97 -74 164 -74 31 0 59 -4 62 -10 8 -12 52 -13 59 -1 3 4 27 11 53 14 93 11 141 26 162 51 17 20 41 21 41 2 0 -19 98 -10 123 12 9 8 32 17 50 19 44 5 221 78 271 112 162 112 259 321 236 509 -5 40 -12 94 -15 122 -9 74 -37 132 -79 160 -44 31 -53 49 -20 42 33 -6 85 35 132 106 47 72 60 108 72 207 15 122 37 418 32 437 -5 20 -39 19 -52 -2 -11 -17 -17 -70 -30 -235 -19 -252 -52 -350 -154 -459 -47 -50 -58 -57 -71 -46 -23 19 -19 33 26 74 46 45 95 134 109 203 13 65 40 353 40 434 0 72 -15 101 -57 114 -17 4 -30 -1 -48 -19z m-1045 -1037 c0 -57 -4 -88 -10 -84 -16 10 -11 175 6 175 2 0 4 -41 4 -91z m150 36 c0 -3 -9 -5 -20 -5 -11 0 -20 7 -20 15 0 13 4 14 20 5 11 -6 20 -13 20 -15z m523 -2 c-7 -2 -19 -2 -25 0 -7 3 -2 5 12 5 14 0 19 -2 13 -5z m-236 -40 c-4 -3 -10 -3 -14 0 -3 4 0 7 7 7 7 0 10 -3 7 -7z m-152 -17 l70 2 -74 -19 c-41 -11 -76 -21 -79 -23 -2 -3 7 -11 20 -20 21 -14 39 -12 223 25 110 23 241 43 290 46 83 5 93 3 125 -19 127 -86 94 -332 -58 -429 -55 -34 -75 -41 -247 -75 -71 -14 -167 -34 -212 -45 -118 -27 -122 -27 -117 19 2 20 6 130 8 245 l5 207 -25 16 c-13 9 -26 15 -28 13 -2 -2 -7 -106 -11 -232 -6 -182 -5 -230 6 -243 11 -14 10 -15 -11 -12 -29 4 -29 2 -31 208 -2 270 0 313 19 331 11 11 24 15 37 11 11 -4 52 -6 90 -6z m92 7 c-4 -3 -10 -3 -14 0 -3 4 0 7 7 7 7 0 10 -3 7 -7z m677 -94 c12 -80 -46 -271 -76 -253 -7 4 -8 3 -4 -4 20 -33 -88 -145 -176 -181 -31 -12 -68 -21 -83 -19 -22 2 -13 10 61 48 171 88 249 206 229 350 -4 31 -2 69 6 100 12 48 14 50 25 28 6 -13 14 -44 18 -69z m-1054 -124 c0 -52 -4 -95 -9 -95 -13 0 -23 117 -12 139 6 11 8 27 5 35 -3 9 -1 16 5 16 7 0 11 -32 11 -95z m-3 -152 c-4 -3 -10 -3 -14 0 -3 4 0 7 7 7 7 0 10 -3 7 -7z m2 -96 c-1 -72 -11 -108 -24 -87 -9 14 -8 112 1 143 11 36 24 4 23 -56z m-52 46 c-4 -3 -7 0 -7 7 0 7 3 10 7 7 3 -4 3 -10 0 -14z m553 -173 c0 -5 -8 -10 -19 -10 -10 0 -34 -2 -52 -5 l-34 -5 30 14 c35 17 75 20 75 6z m-325 -60 c7 -12 -43 -33 -62 -26 -7 3 -10 12 -7 21 7 17 59 21 69 5z"/>
 <path d="M14660 5206 c-13 -13 -330 -96 -365 -96 -8 0 -11 7 -8 20 6 23 -5 25 -59 9 -41 -11 -48 -23 -20 -34 14 -6 12 -9 -13 -21 -16 -7 -42 -13 -57 -14 -22 0 -25 3 -20 22 5 19 2 21 -28 15 -18 -4 -37 -7 -43 -7 -7 0 -1 -7 12 -16 28 -20 13 -34 -36 -34 -27 0 -34 -5 -39 -27 -6 -20 -2 -31 16 -45 12 -10 29 -18 37 -18 37 0 487 109 612 148 32 10 60 26 68 39 14 21 14 26 -1 48 -19 28 -35 31 -56 11z"/>
 <path d="M12487 5200 c-6 -17 -34 -259 -43 -365 -4 -51 -2 -66 5 -53 6 9 11 27 10 40 0 12 2 39 5 58 2 19 8 69 11 110 4 41 13 99 21 128 8 33 10 61 5 75 -7 17 -10 18 -14 7z"/>
 <path d="M8595 5190 c-3 -5 -1 -10 4 -10 6 0 11 5 11 10 0 6 -2 10 -4 10 -3 0 -8 -4 -11 -10z"/>
 <path d="M13383 5108 c2 -7 0 -23 -4 -35 -5 -14 -5 -23 1 -23 6 0 10 6 10 13 0 6 3 22 6 35 4 14 2 22 -6 22 -6 0 -10 -6 -7 -12z"/>
 <path d="M14510 5004 c-36 -8 -118 -25 -182 -39 -64 -13 -125 -28 -135 -33 -10 -6 -45 -15 -78 -21 -80 -15 -100 -36 -26 -27 67 9 360 75 382 87 9 4 44 13 79 18 35 6 68 15 74 21 14 14 -34 12 -114 -6z"/>
 <path d="M4957 4832 c-19 -21 -22 -48 -7 -57 10 -6 14 -45 5 -45 -4 0 -19 7 -35 15 -26 13 -30 13 -30 1 0 -8 -5 -16 -11 -18 -15 -5 -22 -158 -8 -158 7 0 8 -7 4 -17 -12 -29 -15 -68 -19 -235 -2 -113 0 -156 8 -151 6 4 6 1 -1 -8 -10 -12 -11 -116 -8 -454 4 -383 7 -441 21 -456 12 -14 22 -16 41 -8 43 16 63 11 63 -15 0 -14 -4 -28 -10 -31 -16 -10 -12 -51 8 -68 26 -23 64 -30 86 -14 14 10 20 33 26 98 5 46 11 96 15 111 4 15 8 55 10 90 1 35 5 70 8 78 3 8 5 22 5 30 0 8 3 29 6 47 6 34 -10 56 -25 32 -6 -11 -9 -10 -15 4 -9 25 2 47 25 47 18 0 20 7 19 73 0 39 0 128 0 197 1 69 -1 136 -2 150 -2 14 -4 44 -5 66 -1 33 -5 43 -21 47 -11 3 -20 10 -20 17 0 7 9 14 20 17 16 4 20 14 20 48 0 62 -21 145 -37 145 -16 0 -17 16 -2 25 13 8 3 267 -12 338 -9 37 -18 51 -40 62 -38 20 -62 19 -82 -3z m7 -213 c10 -8 9 -167 0 -237 -4 -24 -10 -40 -14 -35 -17 20 -41 106 -35 126 25 82 27 136 5 122 -9 -6 -42 40 -34 48 6 6 65 -12 78 -24z m-3 -554 l-7 -40 -7 55 c-3 30 -3 66 0 80 7 23 8 21 14 -15 4 -22 4 -58 0 -80z m11 -462 c12 -23 6 -203 -7 -224 -5 -6 -19 16 -36 52 -33 74 -34 82 -14 99 8 7 15 25 15 41 0 15 5 31 10 34 6 3 11 18 11 33 1 20 2 22 6 7 2 -11 9 -30 15 -42z"/>
 <path d="M5177 4738 c-5 -77 -3 -96 10 -110 15 -17 15 -18 0 -18 -15 0 -17 -56 -14 -694 2 -677 2 -694 22 -716 l20 -22 7 37 c5 21 7 382 6 804 -3 769 -5 811 -37 811 -4 0 -11 -42 -14 -92z"/>
 <path d="M13114 4729 c-76 -38 -119 -50 -384 -105 -78 -16 -173 -55 -152 -62 29 -9 451 84 514 114 63 29 125 78 111 87 -6 4 -46 -12 -89 -34z"/>
 <path d="M3418 4626 c-14 -16 -18 -29 -13 -53 6 -34 -29 -177 -95 -386 -11 -37 -18 -72 -15 -77 3 -6 -1 -10 -9 -10 -9 0 -16 6 -16 14 0 17 -37 46 -58 46 -7 0 -24 -12 -39 -26 -24 -24 -72 -49 -80 -41 -9 10 12 39 45 59 19 12 30 24 24 26 -7 2 -105 -12 -219 -32 -481 -83 -497 -85 -509 -75 -34 28 -66 -32 -34 -66 28 -30 25 -34 -19 -32 -26 1 -47 -5 -60 -17 -20 -18 -20 -18 -26 7 -4 14 -5 35 -3 48 2 14 -6 32 -19 46 -13 12 -23 31 -23 42 0 11 -4 23 -10 26 -5 3 -10 14 -10 23 0 20 -85 189 -108 215 -30 34 -51 40 -78 22 -27 -17 -31 -50 -11 -80 7 -11 19 -40 26 -65 13 -47 23 -72 77 -185 43 -93 51 -125 30 -125 -9 0 -16 -5 -16 -11 0 -5 -4 -8 -8 -5 -19 11 -33 -14 -35 -62 -1 -27 1 -48 6 -45 4 2 7 -5 7 -16 0 -11 9 -22 20 -26 15 -5 20 -15 19 -38 0 -18 -3 -25 -6 -17 -7 17 -33 45 -33 35 0 -4 7 -22 16 -40 13 -27 20 -33 40 -29 13 2 24 0 24 -6 0 -6 -5 -8 -10 -5 -6 3 -10 2 -10 -3 0 -5 9 -12 20 -15 13 -3 18 -11 14 -20 -3 -9 -12 -13 -20 -10 -9 3 -14 -2 -14 -15 0 -11 5 -22 11 -24 5 -2 11 -12 13 -22 1 -10 13 -27 27 -37 13 -10 18 -19 11 -19 -16 0 -10 -22 28 -105 27 -58 168 -382 215 -495 13 -30 30 -68 39 -85 9 -16 16 -35 16 -41 0 -6 11 -23 24 -37 20 -21 32 -26 63 -23 31 3 44 -3 76 -30 42 -38 53 -40 152 -21 77 15 102 26 126 54 21 24 69 149 123 318 24 77 65 207 91 288 26 82 49 163 52 180 3 18 9 52 14 77 6 25 11 52 13 60 1 9 5 20 8 25 12 20 37 129 31 138 -3 5 -1 12 5 16 12 8 67 177 127 391 77 274 87 325 75 368 -18 67 -64 89 -102 48z m-144 -563 c-4 -16 -10 -32 -14 -38 -7 -10 -15 -40 -41 -151 -22 -93 -59 -112 -59 -30 0 32 8 54 29 83 16 23 32 55 34 72 4 24 42 88 55 90 1 1 -1 -11 -4 -26z m-207 -175 c-3 -10 -1 -18 4 -18 5 0 14 -12 19 -26 10 -26 -13 -119 -135 -539 -24 -82 -53 -182 -65 -222 -22 -77 -33 -91 -55 -73 -8 6 -23 10 -35 8 -17 -2 -28 8 -51 49 -16 28 -31 60 -32 70 -7 34 -19 52 -37 58 -15 5 -17 13 -13 39 4 28 0 38 -27 64 -17 17 -29 36 -25 42 4 6 0 19 -8 28 -8 9 -25 40 -38 69 -13 29 -30 52 -37 53 -9 0 -11 7 -7 21 7 20 -20 109 -36 119 -4 3 -9 38 -10 78 -2 41 -7 76 -11 78 -5 3 -2 17 6 32 12 24 18 26 65 23 31 -1 58 3 67 10 9 7 39 14 67 14 29 1 75 8 102 14 28 7 70 14 95 15 25 2 52 6 60 9 81 30 105 33 123 18 10 -8 16 -23 14 -33z m30 35 c-4 -3 -10 -3 -14 0 -3 4 0 7 7 7 7 0 10 -3 7 -7z m-430 -50 c-4 -3 -7 0 -7 7 0 7 3 10 7 7 3 -4 3 -10 0 -14z m-463 -9 c10 -27 -3 -30 -26 -6 l-22 22 21 0 c11 0 24 -7 27 -16z m233 -101 c-4 -3 -7 0 -7 7 0 7 3 10 7 7 3 -4 3 -10 0 -14z m-180 -60 c-4 -3 -10 -3 -14 0 -3 4 0 7 7 7 7 0 10 -3 7 -7z m-30 -130 c-4 -3 -10 -3 -14 0 -3 4 0 7 7 7 7 0 10 -3 7 -7z m720 -600 c-4 -3 -7 0 -7 7 0 7 3 10 7 7 3 -4 3 -10 0 -14z m-47 -33 c0 -24 -26 -38 -42 -22 -8 8 -8 15 2 27 18 21 40 19 40 -5z m13 -75 c4 -8 2 -17 -3 -20 -6 -4 -10 3 -10 14 0 25 6 27 13 6z m-37 -29 c31 -32 12 -60 -49 -69 -44 -7 -57 9 -39 48 9 20 21 26 65 34 5 0 15 -5 23 -13z"/>
 <path d="M2920 3854 c-41 -7 -118 -20 -170 -29 -131 -21 -210 -38 -210 -45 0 -3 8 -10 19 -17 15 -9 67 -3 257 29 132 22 241 42 243 44 8 8 -14 23 -39 27 -14 3 -59 -1 -100 -9z"/>
 <path d="M2535 3730 c3 -5 8 -10 11 -10 3 0 2 5 -1 10 -3 6 -8 10 -11 10 -3 0 -2 -4 1 -10z"/>
 <path d="M2563 3664 c14 -27 28 -58 31 -68 4 -10 9 -16 12 -13 9 8 -40 120 -55 125 -9 3 -5 -12 12 -44z"/>
 <path d="M2607 3563 c-3 -5 6 -36 20 -68 27 -65 29 -70 64 -162 13 -35 27 -63 31 -63 12 0 12 1 -42 141 -57 148 -65 165 -73 152z"/>
 <path d="M2727 3254 c-6 -6 30 -98 50 -129 7 -11 13 -29 13 -42 0 -12 5 -25 11 -28 26 -17 19 8 -32 122 -10 23 -19 49 -19 57 0 16 -14 29 -23 20z"/>
 <path d="M3631 4479 c-7 -19 -19 -47 -26 -64 -16 -38 -47 -146 -43 -150 2 -1 15 -5 29 -8 24 -6 27 -3 44 51 10 31 19 66 21 77 1 11 7 33 13 48 15 38 14 57 -3 57 -8 0 -16 5 -18 12 -2 6 -10 -4 -17 -23z"/>
 <path d="M6953 4483 c4 -3 10 -3 14 0 3 4 0 7 -7 7 -7 0 -10 -3 -7 -7z"/>
 <path d="M3288 4449 c-22 -12 -23 -35 -3 -43 13 -4 14 -2 5 14 -9 16 -8 20 5 20 8 0 15 5 15 10 0 12 0 12 -22 -1z"/>
 <path d="M3254 4375 c-4 -8 -7 -28 -9 -43 -1 -15 -7 -38 -12 -52 -31 -73 -33 -80 -18 -80 9 0 19 10 24 23 21 53 33 107 28 120 -3 8 -1 19 5 25 6 6 6 12 -1 17 -6 3 -14 -1 -17 -10z"/>
 <path d="M7497 4313 c61 -145 56 -312 -14 -487 -73 -182 -239 -327 -428 -371 -93 -22 -328 -72 -446 -94 -59 -12 -128 -27 -155 -35 -27 -8 -68 -19 -91 -26 -47 -12 -52 -19 -25 -37 14 -8 33 -8 78 3 32 7 205 43 384 79 335 68 418 88 435 109 6 7 22 16 36 19 71 18 210 160 268 274 66 131 86 348 43 465 -20 55 -76 138 -93 138 -4 0 -1 -17 8 -37z"/>
 <path d="M2345 4220 c3 -5 8 -10 11 -10 2 0 4 5 4 10 0 6 -5 10 -11 10 -5 0 -7 -4 -4 -10z"/>
 <path d="M3539 4203 c-16 -44 -190 -604 -199 -643 -5 -19 -20 -66 -34 -105 -14 -38 -39 -117 -56 -175 -18 -58 -40 -127 -49 -155 -10 -27 -24 -75 -31 -105 -7 -30 -24 -89 -37 -130 -26 -79 -36 -169 -22 -192 7 -11 11 -10 18 2 5 8 8 17 5 21 -2 4 -1 9 3 11 17 7 137 378 198 611 19 73 57 199 85 282 27 82 50 157 50 166 0 8 9 34 20 57 11 22 20 45 20 51 0 12 54 184 81 259 25 69 24 72 -11 72 -24 0 -33 -6 -41 -27z m16 -63 c-3 -5 -10 -10 -16 -10 -5 0 -9 5 -9 10 0 6 7 10 16 10 8 0 12 -4 9 -10z"/>
 <path d="M2035 4200 c3 -5 8 -10 11 -10 3 0 2 5 -1 10 -3 6 -8 10 -11 10 -3 0 -2 -4 1 -10z"/>
 <path d="M2375 4160 c4 -14 14 -32 22 -40 12 -12 11 -7 -2 20 -22 45 -29 52 -20 20z"/>
 <path d="M2075 4130 c-3 -5 -1 -10 4 -10 6 0 11 5 11 10 0 6 -2 10 -4 10 -3 0 -8 -4 -11 -10z"/>
 <path d="M2307 4064 c-11 -11 5 -34 24 -34 12 0 19 7 19 20 0 19 -28 28 -43 14z"/>
 <path d="M4800 3207 c0 -20 4 -37 10 -37 5 0 7 14 3 33 -8 45 -13 47 -13 4z"/>
 <path d="M2910 2583 c-19 -2 -60 -9 -90 -14 -78 -15 -91 -17 -127 -18 -46 -1 -44 -28 2 -33 19 -2 35 0 35 5 0 4 8 6 18 3 10 -3 60 3 112 14 120 26 130 29 130 41 0 9 -13 9 -80 2z"/>
 </g>
<g id="layer107" fill="#f8f8f8" stroke="none">
 <path d="M14515 6390 c-3 -5 -1 -19 6 -31 8 -17 7 -46 -6 -130 -9 -60 -13 -113 -10 -119 4 -6 2 -16 -3 -23 -9 -10 -92 -570 -106 -707 -9 -99 -20 -146 -39 -172 -17 -23 -18 -30 -7 -43 18 -22 49 -15 72 16 21 28 38 135 107 649 17 129 36 260 42 290 18 96 23 248 9 265 -14 17 -56 20 -65 5z"/>
 <path d="M13335 6210 c-3 -5 -3 -25 1 -44 3 -19 -1 -79 -10 -133 -8 -54 -17 -114 -19 -133 -19 -148 -88 -280 -148 -280 -26 0 -59 -22 -59 -40 0 -17 32 -40 56 -40 51 0 131 66 168 138 49 94 103 466 76 517 -14 25 -53 34 -65 15z"/>
 <path d="M12629 6073 c-7 -17 -7 -34 -1 -43 8 -13 5 -66 -13 -265 -2 -22 -9 -67 -15 -100 -10 -58 -83 -722 -96 -876 -9 -100 3 -114 90 -106 75 6 399 81 475 109 74 28 157 111 203 204 44 86 56 137 57 239 2 131 -35 206 -123 250 -68 34 -144 33 -341 -5 -87 -17 -168 -27 -182 -24 -25 7 -25 7 -18 83 4 42 9 103 12 136 2 33 8 85 13 115 6 30 12 103 15 161 5 113 0 131 -42 144 -19 5 -25 1 -34 -22z m561 -661 c90 -66 95 -221 14 -384 -63 -125 -115 -155 -365 -213 -106 -25 -197 -49 -202 -54 -4 -4 -19 -6 -33 -3 -23 4 -24 8 -19 51 6 49 16 144 40 366 24 221 18 205 71 205 26 0 107 11 183 24 75 14 150 27 166 29 51 8 119 -2 145 -21z"/>
 <path d="M11110 5837 c-248 -89 -452 -372 -510 -709 -7 -39 -18 -69 -26 -72 -19 -7 -18 -40 1 -56 19 -16 3 -40 -26 -40 -24 0 -24 -11 1 -43 16 -20 20 -41 20 -99 1 -116 40 -269 91 -353 70 -118 170 -175 303 -175 155 0 286 65 424 209 197 205 280 440 283 794 2 196 -20 297 -88 405 -63 100 -166 152 -313 159 -81 3 -105 0 -160 -20z m284 -88 c150 -56 213 -239 188 -549 -19 -252 -79 -426 -197 -579 -68 -88 -104 -122 -175 -164 -81 -49 -136 -68 -212 -74 -84 -7 -143 13 -206 71 -85 78 -129 206 -136 392 -3 74 -9 109 -18 115 -10 7 -9 11 5 21 10 8 21 37 27 73 61 347 225 595 457 691 77 31 188 33 267 3z"/>
 <path d="M11133 5653 c4 -3 10 -3 14 0 3 4 0 7 -7 7 -7 0 -10 -3 -7 -7z"/>
 <path d="M11168 5653 c7 -3 16 -2 19 1 4 3 -2 6 -13 5 -11 0 -14 -3 -6 -6z"/>
 <path d="M8676 5419 c-13 -19 -13 -24 0 -45 12 -17 14 -39 10 -86 -3 -35 -8 -108 -11 -163 -3 -55 -10 -156 -15 -225 -5 -69 -14 -222 -20 -340 -15 -315 -20 -414 -30 -523 -14 -161 11 -190 143 -168 400 69 511 104 609 191 164 144 238 442 155 624 -43 93 -112 144 -224 166 -54 11 -80 9 -205 -10 -79 -12 -173 -28 -211 -35 -37 -7 -82 -10 -99 -6 l-32 7 3 59 c1 33 4 62 6 65 2 3 7 110 11 237 7 227 7 230 -15 252 -27 27 -56 27 -75 0z m688 -682 c80 -45 118 -179 90 -317 -33 -162 -125 -295 -244 -353 -37 -18 -129 -41 -280 -71 -123 -25 -226 -43 -228 -41 -3 2 1 77 6 167 6 90 17 261 24 381 11 197 16 234 32 208 7 -10 84 -4 201 16 50 8 113 17 140 20 28 3 52 7 54 9 2 2 41 4 85 4 65 0 89 -5 120 -23z"/>
 <path d="M7370 5245 c-11 -13 -11 -23 -3 -46 7 -17 10 -44 7 -62 -2 -18 -11 -115 -19 -217 -14 -162 -20 -192 -44 -245 -42 -89 -81 -123 -137 -116 -15 2 -31 -19 -39 -51 -6 -24 -3 -29 20 -38 105 -40 225 64 269 234 8 30 22 153 32 273 15 190 15 223 3 248 -17 36 -67 47 -89 20z m-23 -622 c-4 -3 -7 0 -7 7 0 7 3 10 7 7 3 -4 3 -10 0 -14z"/>
 <path d="M14655 5195 c-11 -7 -101 -32 -200 -55 -99 -22 -202 -47 -230 -55 -107 -30 -185 -46 -194 -41 -17 11 -41 -6 -41 -30 0 -35 28 -45 99 -33 102 16 584 139 609 155 24 16 29 43 10 62 -15 15 -28 15 -53 -3z"/>
 <path d="M6350 5058 c1 -85 -11 -1044 -16 -1265 -7 -326 -3 -353 48 -374 25 -10 45 -10 107 0 149 25 597 122 656 141 132 45 249 164 302 310 24 65 28 90 28 185 0 98 -3 116 -26 166 -49 104 -138 178 -233 193 -21 4 -42 8 -46 11 -11 7 -226 -21 -310 -39 -110 -24 -251 -45 -337 -49 l-82 -4 2 346 c1 190 -1 354 -5 364 -6 14 -12 16 -28 7 -16 -9 -20 -8 -20 5 0 8 -9 15 -20 15 -11 0 -20 -6 -20 -12z m50 -38 c0 -5 -4 -10 -10 -10 -5 0 -10 5 -10 10 0 6 5 10 10 10 6 0 10 -4 10 -10z m829 -712 c66 -16 125 -78 146 -153 56 -191 -65 -436 -246 -501 -39 -14 -568 -126 -661 -141 l-38 -6 6 379 c4 209 8 381 10 383 2 2 9 -1 16 -7 7 -5 31 -15 53 -21 33 -9 76 -4 285 34 333 60 320 59 429 33z"/>
 <path d="M4960 4830 c-24 -24 -25 -38 -3 -62 15 -17 17 -51 18 -306 1 -158 3 -503 4 -767 2 -330 0 -489 -8 -508 -14 -36 -15 -33 11 -57 26 -24 70 -26 88 -5 17 20 8 1624 -9 1670 -10 26 -48 55 -73 55 -4 0 -17 -9 -28 -20z"/>
 <path d="M3422 4628 c-7 -7 -12 -37 -12 -68 0 -33 -12 -94 -29 -150 -16 -52 -41 -140 -56 -195 -15 -55 -31 -109 -35 -120 -5 -11 -19 -54 -31 -95 -12 -41 -43 -145 -70 -230 -61 -199 -80 -263 -184 -625 -91 -320 -103 -356 -119 -367 -8 -6 -7 -11 3 -17 9 -6 10 -11 2 -15 -6 -4 -11 -3 -11 3 0 5 -23 11 -52 13 l-52 3 -27 70 c-14 39 -66 167 -114 285 -49 118 -110 269 -136 335 -27 66 -53 129 -58 140 -9 19 -97 243 -109 275 -4 12 -2 13 9 3 19 -19 90 -16 215 7 60 12 204 38 319 60 116 21 226 42 245 46 52 10 118 51 135 84 19 36 19 45 -1 64 -23 24 -58 19 -91 -12 -23 -23 -42 -30 -89 -35 -32 -4 -194 -33 -359 -65 -181 -36 -315 -58 -337 -55 -29 4 -39 1 -50 -16 -17 -28 -23 -27 -36 7 -106 278 -180 431 -204 416 -6 -4 -14 0 -19 7 -7 11 -12 10 -30 -7 -20 -21 -21 -23 -5 -50 9 -16 29 -65 45 -109 16 -44 46 -118 66 -165 20 -47 42 -103 49 -125 7 -22 81 -206 164 -410 82 -203 166 -410 185 -460 69 -176 147 -349 169 -372 15 -16 33 -23 59 -23 61 0 172 30 196 52 27 25 62 131 183 548 51 173 105 359 122 412 16 54 30 108 30 120 1 13 5 28 8 33 18 26 192 624 205 701 4 28 1 54 -9 78 -12 29 -20 36 -43 36 -16 0 -34 -5 -41 -12z m-1365 -275 c-4 -3 -10 -3 -14 0 -3 4 0 7 7 7 7 0 10 -3 7 -7z"/>
 </g>

</svg>